<?xml version="1.0" encoding="UTF-8" standalone="no"?>
<!DOCTYPE svg PUBLIC "-//W3C//DTD SVG 1.1//EN" "http://www.w3.org/Graphics/SVG/1.1/DTD/svg11.dtd">
<svg xmlns="http://www.w3.org/2000/svg" version="1.1" viewBox="0.00 0.00 1024.00 1024.00">
<path fill="#8b8c89" fill-opacity="0.996" d="
  M 564.06 172.48
  L 554.29 172.60
  L 558.12 171.95
  L 561.86 172.06
  L 561.86 172.06
  L 564.06 172.48
  Z"
/>
<path fill="#202026" d="
  M 554.29 172.60
  L 564.06 172.48
  L 567.54 173.31
  L 570.85 174.43
  L 573.98 175.82
  L 576.94 177.49
  L 576.94 177.49
  L 579.65 179.39
  L 582.20 181.56
  L 584.15 183.53
  L 585.89 185.61
  L 587.41 187.80
  L 588.73 190.10
  L 588.73 190.10
  L 590.23 193.56
  L 591.30 197.24
  L 591.94 201.13
  L 592.15 205.25
  L 591.99 581.66
  L 591.69 582.02
  L 591.97 582.54
  L 592.29 582.66
  L 601.48 582.54
  L 626.31 582.61
  L 630.86 582.90
  L 630.86 582.90
  L 635.42 582.86
  L 639.99 582.51
  L 643.65 582.88
  L 647.38 583.02
  L 648.13 582.94
  L 648.63 582.74
  L 649.11 582.53
  L 649.21 582.50
  L 650.15 582.60
  L 650.96 582.90
  L 651.73 582.94
  L 652.54 582.68
  L 653.32 582.09
  L 742.54 492.76
  L 742.88 492.31
  L 743.76 491.14
  L 745.22 489.85
  L 746.82 488.46
  L 759.26 475.82
  L 760.11 475.40
  L 760.60 474.82
  L 760.60 474.82
  L 760.74 474.22
  L 762.20 472.69
  L 769.07 465.80
  L 769.30 465.53
  L 771.99 462.50
  L 774.83 459.61
  L 780.98 454.21
  L 782.53 452.56
  L 783.48 451.47
  L 784.37 450.76
  L 784.86 450.49
  L 785.48 449.99
  L 785.81 449.27
  L 785.78 448.50
  L 785.38 447.84
  L 785.38 447.84
  L 784.89 447.52
  L 784.31 447.22
  L 782.81 445.76
  L 781.99 444.82
  L 775.57 438.51
  L 774.81 437.33
  L 774.06 436.91
  L 769.50 432.43
  L 765.49 428.51
  L 754.23 416.79
  L 742.71 405.29
  L 740.59 402.84
  L 738.56 399.71
  L 737.92 396.63
  L 737.70 393.54
  L 737.70 393.54
  L 737.70 393.54
  L 737.90 390.46
  L 738.52 387.38
  L 739.98 384.87
  L 741.36 383.11
  L 764.31 360.12
  L 766.72 357.89
  L 768.92 356.16
  L 770.89 354.94
  L 772.65 354.23
  L 775.18 353.75
  L 777.68 353.75
  L 777.68 353.75
  L 779.32 354.01
  L 780.95 354.49
  L 784.14 356.08
  L 784.28 356.17
  L 784.28 356.17
  L 786.11 357.51
  L 787.81 359.05
  L 789.37 360.79
  L 790.81 362.73
  L 837.55 409.40
  L 838.91 411.27
  L 838.91 411.27
  L 840.35 412.73
  L 842.00 414.00
  L 847.26 419.29
  L 847.92 420.36
  L 848.76 421.21
  L 849.71 421.79
  L 853.82 426.17
  L 858.15 430.36
  L 866.37 438.88
  L 867.62 440.31
  L 868.66 441.80
  L 869.47 443.35
  L 870.06 444.97
  L 870.06 444.97
  L 870.42 446.59
  L 869.17 457.10
  L 854.76 472.02
  L 839.68 486.68
  L 838.58 487.39
  L 836.73 488.15
  L 828.94 488.60
  L 827.16 488.36
  L 824.89 487.38
  L 823.79 486.25
  L 822.56 485.34
  L 822.56 485.34
  L 821.50 484.79
  L 804.21 467.49
  L 803.31 466.75
  L 803.05 466.36
  L 801.83 464.69
  L 800.40 463.41
  L 799.97 463.27
  L 799.54 463.38
  L 799.11 463.68
  L 798.27 464.59
  L 797.66 465.79
  L 727.00 537.03
  L 713.77 550.29
  L 713.10 550.74
  L 712.07 551.66
  L 711.19 552.77
  L 682.95 581.09
  L 680.30 583.80
  L 667.68 596.34
  L 664.82 598.71
  L 662.56 600.25
  L 660.41 601.31
  L 658.27 601.92
  L 656.00 602.12
  L 581.00 602.02
  L 579.00 601.90
  L 577.23 601.50
  L 576.35 601.03
  L 575.10 599.89
  L 574.06 598.68
  L 573.23 597.39
  L 572.60 596.02
  L 572.60 596.02
  L 572.44 595.57
  L 572.71 574.00
  L 572.69 300.52
  L 572.85 236.31
  L 572.68 222.06
  L 572.54 206.34
  L 572.47 204.02
  L 572.15 201.84
  L 571.58 199.80
  L 570.77 197.91
  L 569.56 196.19
  L 568.12 194.74
  L 568.12 194.74
  L 568.12 194.74
  L 568.12 194.74
  L 566.80 193.78
  L 565.33 192.99
  L 563.72 192.38
  L 561.96 191.94
  L 559.61 191.34
  L 559.61 191.34
  L 557.83 191.41
  L 556.01 191.91
  L 553.80 192.64
  L 551.78 193.68
  L 551.78 193.68
  L 550.09 194.94
  L 548.56 196.48
  L 548.21 196.67
  L 547.84 197.46
  L 546.57 200.04
  L 546.33 200.31
  L 546.33 200.31
  L 545.87 201.17
  L 545.68 202.25
  L 545.31 214.14
  L 545.18 226.03
  L 545.11 598.00
  L 545.36 613.14
  L 546.11 625.35
  L 547.48 626.72
  L 548.02 627.02
  L 548.46 627.05
  L 553.14 627.61
  L 559.50 627.81
  L 659.75 627.87
  L 667.11 627.68
  L 672.58 627.12
  L 672.71 627.04
  L 674.56 625.81
  L 675.88 624.68
  L 691.80 608.80
  L 714.77 585.80
  L 731.27 568.72
  L 732.04 568.43
  L 732.54 567.97
  L 732.79 567.23
  L 739.32 560.61
  L 744.75 555.22
  L 767.48 531.98
  L 790.47 508.95
  L 794.22 505.70
  L 795.82 504.67
  L 797.25 504.05
  L 798.83 503.68
  L 800.41 503.59
  L 800.41 503.59
  L 800.41 503.59
  L 802.91 503.99
  L 805.40 505.09
  L 806.37 505.76
  L 806.37 505.76
  L 806.37 505.76
  L 807.51 506.94
  L 808.42 508.41
  L 809.09 510.17
  L 809.53 512.21
  L 809.12 516.88
  L 808.98 517.39
  L 807.38 520.21
  L 805.97 521.97
  L 799.02 528.76
  L 792.44 535.88
  L 791.83 536.57
  L 704.77 624.02
  L 686.86 642.10
  L 684.45 643.86
  L 680.51 645.74
  L 678.43 646.38
  L 675.87 646.80
  L 672.71 647.00
  L 668.58 647.01
  L 667.01 647.00
  L 557.40 647.00
  L 555.24 647.01
  L 549.48 646.96
  L 545.67 646.66
  L 542.37 646.03
  L 539.42 644.98
  L 537.55 644.01
  L 535.70 642.77
  L 533.30 640.73
  L 531.21 638.45
  L 531.21 638.45
  L 528.91 634.96
  L 527.18 631.02
  L 526.61 628.67
  L 526.22 625.44
  L 526.00 621.33
  L 525.97 616.35
  L 525.99 226.26
  L 525.85 214.26
  L 525.82 206.67
  L 526.06 202.26
  L 527.17 196.86
  L 528.01 194.29
  L 529.02 191.79
  L 529.02 191.79
  L 530.45 188.98
  L 532.13 186.28
  L 539.09 179.01
  L 542.69 176.59
  L 546.52 174.70
  L 546.52 174.70
  L 550.31 173.41
  L 554.29 172.60
  Z
  M 775.82 375.91
  L 760.50 390.82
  L 759.48 391.30
  L 759.01 391.92
  L 758.99 392.27
  L 758.76 392.54
  L 758.55 393.21
  L 758.77 393.74
  L 766.26 401.07
  L 766.51 401.28
  L 778.04 412.90
  L 778.72 413.54
  L 780.20 415.52
  L 782.01 417.00
  L 782.77 417.70
  L 783.41 418.75
  L 784.24 419.57
  L 784.99 420.04
  L 792.99 428.08
  L 793.02 428.13
  L 794.91 430.33
  L 830.87 466.34
  L 831.49 466.60
  L 832.12 466.34
  L 848.47 449.98
  L 848.68 449.60
  L 848.65 449.14
  L 847.98 447.85
  L 846.97 446.55
  L 844.46 443.94
  L 840.60 440.31
  L 834.75 434.66
  L 817.27 416.63
  L 792.97 392.35
  L 782.53 381.97
  L 781.56 380.46
  L 781.56 380.46
  L 780.52 379.39
  L 779.27 378.48
  L 778.46 377.36
  L 777.51 376.40
  L 776.45 375.61
  L 776.08 375.51
  L 776.02 375.53
  L 775.87 375.64
  L 775.82 375.91
  Z"
/>
<path fill="#8b8c89" fill-opacity="0.996" d="
  M 539.09 179.01
  L 532.13 186.28
  L 533.65 183.92
  L 535.46 181.84
  L 537.18 180.33
  L 539.09 179.01
  Z"
/>
<path fill="#8b8c89" fill-opacity="0.996" d="
  M 488.68 187.40
  L 483.80 184.84
  L 482.01 184.15
  L 480.64 183.85
  L 475.45 183.60
  L 467.58 183.52
  L 443.75 183.85
  L 422.71 183.95
  L 390.43 183.53
  L 387.70 183.62
  L 382.71 183.64
  L 385.60 183.15
  L 387.75 182.99
  L 392.04 182.99
  L 469.25 182.82
  L 475.66 183.02
  L 481.27 183.68
  L 483.10 184.11
  L 484.82 184.77
  L 484.82 184.77
  L 486.83 185.91
  L 488.68 187.40
  Z"
/>
<path fill="#202026" d="
  M 382.71 183.64
  L 387.70 183.62
  L 390.43 183.53
  L 422.71 183.95
  L 443.75 183.85
  L 467.58 183.52
  L 475.45 183.60
  L 480.64 183.85
  L 482.01 184.15
  L 483.80 184.84
  L 488.68 187.40
  L 491.44 189.56
  L 493.77 191.90
  L 495.67 194.44
  L 497.13 197.17
  L 498.22 200.34
  L 498.81 203.73
  L 499.22 211.49
  L 499.23 222.07
  L 498.96 259.85
  L 499.18 311.53
  L 499.21 316.46
  L 498.87 319.12
  L 497.81 323.46
  L 496.74 326.38
  L 495.06 329.60
  L 492.81 333.02
  L 490.46 335.95
  L 488.93 337.46
  L 487.15 338.89
  L 482.89 341.54
  L 481.70 341.87
  L 479.95 343.00
  L 479.31 343.29
  L 476.21 344.13
  L 474.78 344.82
  L 471.17 345.73
  L 468.00 346.09
  L 463.53 345.98
  L 459.30 345.39
  L 455.30 344.33
  L 451.54 342.78
  L 451.54 342.78
  L 448.56 341.11
  L 445.74 339.11
  L 443.09 336.76
  L 440.61 334.08
  L 440.45 333.16
  L 439.60 332.76
  L 437.86 330.02
  L 436.32 327.03
  L 434.98 323.80
  L 433.83 320.32
  L 433.39 249.09
  L 433.16 248.52
  L 432.60 248.27
  L 425.80 248.08
  L 419.06 248.13
  L 412.38 248.42
  L 405.77 248.94
  L 403.89 250.99
  L 403.06 251.46
  L 402.59 252.29
  L 402.07 253.03
  L 396.58 258.52
  L 396.25 258.76
  L 395.59 259.10
  L 393.35 261.29
  L 381.51 273.23
  L 369.94 285.44
  L 323.91 331.88
  L 322.75 332.75
  L 322.11 333.79
  L 322.11 333.79
  L 322.10 333.82
  L 317.70 338.52
  L 271.19 384.81
  L 271.22 385.11
  L 271.18 385.24
  L 240.90 415.65
  L 240.60 416.10
  L 240.49 416.63
  L 240.58 417.16
  L 240.87 417.61
  L 253.46 430.26
  L 255.66 432.66
  L 258.34 435.59
  L 260.39 437.55
  L 264.86 442.00
  L 268.61 445.73
  L 270.50 447.50
  L 273.18 450.39
  L 274.70 452.04
  L 294.48 472.00
  L 339.13 516.55
  L 341.67 519.41
  L 343.45 521.46
  L 346.09 524.61
  L 346.09 524.61
  L 347.97 526.41
  L 350.02 528.05
  L 351.39 529.55
  L 351.93 530.38
  L 352.97 531.47
  L 354.27 532.37
  L 354.86 532.89
  L 356.04 534.46
  L 357.04 535.13
  L 403.32 581.63
  L 404.06 582.17
  L 404.93 582.46
  L 408.03 582.88
  L 410.75 583.05
  L 420.84 583.14
  L 431.61 583.01
  L 431.96 582.95
  L 433.26 582.47
  L 433.65 571.78
  L 433.73 558.25
  L 433.82 461.00
  L 433.47 452.82
  L 433.63 451.96
  L 433.49 450.97
  L 433.60 450.55
  L 433.53 449.65
  L 433.25 449.26
  L 432.96 449.26
  L 430.25 449.09
  L 384.00 449.14
  L 381.44 449.05
  L 378.95 448.75
  L 376.54 448.24
  L 374.20 447.52
  L 374.20 447.52
  L 374.20 447.52
  L 371.49 446.39
  L 368.89 444.95
  L 366.40 443.21
  L 364.01 441.17
  L 361.47 438.50
  L 359.28 435.90
  L 357.54 433.07
  L 357.54 433.07
  L 356.71 431.30
  L 354.16 424.12
  L 353.99 423.50
  L 353.99 423.50
  L 353.59 421.28
  L 353.50 418.99
  L 353.61 413.85
  L 354.06 409.61
  L 354.96 405.64
  L 356.31 401.94
  L 358.10 398.51
  L 358.10 398.51
  L 360.54 395.11
  L 363.51 392.02
  L 366.23 389.87
  L 369.40 387.93
  L 373.01 386.21
  L 377.07 384.69
  L 378.02 384.48
  L 384.35 384.01
  L 390.65 383.84
  L 430.36 383.98
  L 472.50 383.84
  L 476.13 383.98
  L 479.52 384.47
  L 482.68 385.29
  L 485.61 386.45
  L 488.67 388.43
  L 492.63 391.88
  L 494.56 394.01
  L 495.68 395.64
  L 496.62 397.35
  L 498.05 401.19
  L 498.89 405.65
  L 499.14 410.75
  L 498.93 501.59
  L 499.13 622.12
  L 498.97 625.36
  L 498.46 628.42
  L 497.61 631.30
  L 496.41 633.99
  L 496.41 633.99
  L 495.32 635.84
  L 494.05 637.60
  L 490.96 640.82
  L 487.13 643.66
  L 482.57 646.11
  L 379.17 646.13
  L 376.38 645.24
  L 373.49 643.67
  L 370.44 641.38
  L 367.46 638.54
  L 349.55 620.11
  L 315.81 586.26
  L 309.00 579.46
  L 300.76 570.86
  L 292.24 561.99
  L 270.27 539.75
  L 240.20 509.69
  L 234.62 503.86
  L 231.51 500.41
  L 228.81 497.42
  L 226.60 495.32
  L 225.72 494.58
  L 224.05 493.05
  L 221.97 490.78
  L 219.77 488.39
  L 217.98 486.78
  L 216.47 485.40
  L 214.60 483.33
  L 212.93 481.48
  L 165.28 433.89
  L 164.43 433.04
  L 160.20 428.70
  L 157.46 425.32
  L 155.55 422.09
  L 154.48 418.96
  L 155.90 409.38
  L 156.97 407.61
  L 158.17 406.17
  L 184.20 380.16
  L 186.22 378.35
  L 188.23 377.03
  L 190.34 376.13
  L 192.43 375.69
  L 194.43 375.67
  L 196.40 376.00
  L 198.45 376.70
  L 200.45 377.72
  L 202.48 379.08
  L 204.58 380.81
  L 206.72 382.92
  L 208.85 385.34
  L 212.25 389.10
  L 214.08 390.82
  L 215.70 392.62
  L 218.05 395.17
  L 221.18 398.08
  L 221.24 398.14
  L 224.82 402.48
  L 224.84 402.50
  L 225.38 402.76
  L 225.95 402.55
  L 228.93 399.53
  L 231.18 396.71
  L 232.36 395.47
  L 235.83 392.38
  L 239.46 388.43
  L 240.30 387.76
  L 241.13 387.10
  L 248.30 379.29
  L 255.58 371.83
  L 317.08 310.33
  L 318.89 308.32
  L 320.79 306.45
  L 324.35 303.05
  L 327.30 299.77
  L 328.63 298.59
  L 330.15 297.30
  L 336.33 291.06
  L 345.26 281.63
  L 360.45 266.05
  L 390.89 235.38
  L 393.04 233.36
  L 395.31 231.70
  L 397.68 230.38
  L 400.16 229.40
  L 400.16 229.40
  L 400.16 229.40
  L 402.42 228.83
  L 404.76 228.53
  L 425.01 228.65
  L 431.74 228.55
  L 444.00 228.55
  L 445.83 228.74
  L 447.20 229.33
  L 450.83 231.60
  L 451.95 233.51
  L 452.66 235.52
  L 452.28 272.28
  L 452.39 290.65
  L 452.70 309.02
  L 453.32 316.23
  L 453.82 318.04
  L 454.56 319.72
  L 454.56 319.72
  L 455.75 321.50
  L 457.28 323.10
  L 459.14 324.51
  L 461.35 325.74
  L 463.12 326.48
  L 464.92 326.87
  L 464.92 326.87
  L 464.92 326.87
  L 467.53 326.81
  L 470.22 326.05
  L 472.46 325.28
  L 474.44 324.14
  L 474.44 324.14
  L 475.77 323.04
  L 477.04 321.62
  L 478.06 320.15
  L 478.84 318.61
  L 479.36 317.01
  L 479.63 315.51
  L 479.69 313.97
  L 479.84 303.00
  L 479.99 221.53
  L 479.99 211.94
  L 479.84 209.48
  L 479.35 206.27
  L 479.38 205.41
  L 479.06 204.98
  L 478.42 203.82
  L 477.85 203.46
  L 476.99 203.19
  L 475.95 202.85
  L 475.88 202.64
  L 475.25 202.41
  L 432.13 202.25
  L 388.95 202.41
  L 388.82 202.73
  L 388.45 203.15
  L 387.87 203.44
  L 386.81 203.96
  L 385.53 204.90
  L 382.31 208.08
  L 381.10 209.35
  L 322.03 269.06
  L 321.71 269.21
  L 320.68 270.03
  L 319.87 271.24
  L 318.99 272.24
  L 283.46 307.64
  L 283.41 307.92
  L 283.23 308.26
  L 229.43 362.20
  L 227.49 363.91
  L 225.54 365.13
  L 223.59 365.86
  L 221.65 366.11
  L 221.65 366.11
  L 221.65 366.11
  L 220.20 365.98
  L 217.46 365.14
  L 215.21 363.73
  L 213.98 362.48
  L 212.96 360.98
  L 212.06 358.80
  L 211.78 357.25
  L 211.74 355.64
  L 211.96 353.96
  L 212.42 352.21
  L 212.92 351.12
  L 213.76 349.88
  L 216.44 346.93
  L 240.85 322.61
  L 244.74 318.62
  L 247.22 315.81
  L 248.08 315.01
  L 249.22 314.09
  L 251.07 311.89
  L 251.81 311.12
  L 253.41 309.90
  L 256.03 306.86
  L 257.96 304.94
  L 264.93 298.40
  L 264.95 298.07
  L 264.73 297.89
  L 264.76 297.88
  L 264.76 297.88
  L 265.39 297.52
  L 265.95 296.96
  L 267.04 296.56
  L 267.58 295.92
  L 267.90 294.99
  L 354.22 207.68
  L 375.24 186.99
  L 376.52 186.58
  L 377.82 185.84
  L 378.99 184.81
  L 382.71 183.64
  Z
  M 184.01 408.45
  L 176.59 415.92
  L 176.58 415.93
  L 176.33 416.58
  L 176.61 417.22
  L 186.02 426.07
  L 186.10 426.16
  L 189.03 429.47
  L 217.85 458.17
  L 217.97 458.37
  L 217.97 458.54
  L 259.98 500.81
  L 260.75 501.55
  L 261.96 503.20
  L 263.00 503.99
  L 263.71 504.75
  L 264.73 506.15
  L 266.47 507.64
  L 302.94 544.36
  L 302.79 544.64
  L 302.83 544.72
  L 310.08 552.34
  L 317.72 559.62
  L 319.92 561.98
  L 325.19 567.33
  L 383.64 625.92
  L 384.44 626.43
  L 386.00 626.86
  L 387.51 627.00
  L 475.22 626.92
  L 476.25 626.77
  L 477.19 626.34
  L 477.99 625.68
  L 478.57 624.82
  L 479.30 622.95
  L 479.76 620.75
  L 479.96 618.11
  L 479.98 614.28
  L 479.97 612.00
  L 479.99 415.48
  L 479.61 410.89
  L 479.45 409.59
  L 479.64 408.32
  L 479.46 407.17
  L 479.46 407.17
  L 479.10 406.38
  L 478.53 405.66
  L 477.69 404.86
  L 476.37 404.27
  L 474.67 403.94
  L 472.57 403.85
  L 383.75 403.93
  L 381.23 404.21
  L 378.87 405.09
  L 377.41 406.05
  L 376.15 407.23
  L 375.04 408.70
  L 374.16 410.36
  L 373.48 412.23
  L 373.05 414.21
  L 372.86 416.25
  L 372.93 418.32
  L 373.32 420.31
  L 374.11 422.34
  L 375.30 424.40
  L 376.90 426.51
  L 377.78 427.41
  L 379.40 428.54
  L 381.39 429.37
  L 383.66 429.84
  L 386.25 430.00
  L 443.50 429.91
  L 446.42 430.25
  L 447.71 430.70
  L 448.88 431.33
  L 448.88 431.33
  L 448.88 431.33
  L 449.93 432.14
  L 450.87 433.13
  L 452.38 435.67
  L 452.60 594.41
  L 452.54 594.82
  L 451.62 598.29
  L 450.74 599.70
  L 449.62 600.78
  L 449.62 600.78
  L 449.62 600.78
  L 447.77 601.67
  L 445.49 601.97
  L 404.29 602.12
  L 399.82 601.84
  L 397.94 601.45
  L 396.23 600.87
  L 394.52 600.02
  L 392.86 598.93
  L 389.13 595.63
  L 353.71 560.13
  L 353.36 559.37
  L 352.77 558.74
  L 351.94 558.27
  L 351.81 558.06
  L 334.28 540.39
  L 332.53 538.60
  L 331.59 537.34
  L 330.27 536.22
  L 323.61 529.63
  L 322.87 528.59
  L 321.99 527.74
  L 321.99 527.74
  L 321.26 527.25
  L 270.33 475.79
  L 270.28 475.62
  L 270.30 475.52
  L 258.27 463.47
  L 257.98 462.98
  L 257.29 462.48
  L 242.80 447.89
  L 241.87 447.13
  L 241.02 446.12
  L 234.27 439.37
  L 233.77 439.01
  L 233.30 438.27
  L 232.74 437.51
  L 231.26 436.51
  L 230.78 435.47
  L 230.21 435.03
  L 229.45 434.77
  L 225.27 430.30
  L 224.74 429.45
  L 224.05 428.95
  L 223.41 428.80
  L 218.36 423.62
  L 213.47 418.23
  L 212.36 417.29
  L 211.47 416.59
  L 211.00 415.97
  L 210.39 415.15
  L 209.33 414.27
  L 208.18 413.30
  L 206.80 411.78
  L 205.31 410.14
  L 204.01 409.02
  L 203.18 408.16
  L 201.83 406.52
  L 200.09 405.01
  L 198.98 403.86
  L 197.75 402.29
  L 196.36 400.91
  L 194.74 399.67
  L 194.35 399.08
  L 193.86 398.72
  L 193.86 398.72
  L 193.68 398.66
  L 193.05 398.83
  L 184.01 408.45
  Z"
/>
<path fill="#8b8c89" fill-opacity="0.996" d="
  M 378.99 184.81
  L 377.82 185.84
  L 376.52 186.58
  L 376.52 186.58
  L 375.24 186.99
  L 376.44 185.97
  L 376.44 185.97
  L 377.64 185.29
  L 378.99 184.81
  Z"
/>
<path fill="#8b8c89" fill-opacity="0.996" d="
  M 375.24 186.99
  L 354.22 207.68
  L 354.23 207.63
  L 354.61 206.88
  L 362.67 198.67
  L 373.23 188.25
  L 374.30 187.38
  L 375.24 186.99
  Z"
/>
<path fill="#8b8c89" fill-opacity="0.996" d="
  M 561.96 191.94
  L 556.01 191.91
  L 557.83 191.41
  L 559.61 191.34
  L 559.61 191.34
  L 561.96 191.94
  Z"
/>
<path fill="#8b8c89" fill-opacity="0.996" d="
  M 548.56 196.48
  L 548.36 196.85
  L 547.84 197.46
  L 548.21 196.67
  L 548.56 196.48
  Z"
/>
<path fill="#8b8c89" fill-opacity="0.996" d="
  M 572.44 595.57
  L 572.14 593.04
  L 572.04 589.50
  L 572.11 206.25
  L 571.87 202.71
  L 571.87 202.71
  L 571.44 200.29
  L 570.77 197.91
  L 571.58 199.80
  L 572.15 201.84
  L 572.47 204.02
  L 572.54 206.34
  L 572.68 222.06
  L 572.85 236.31
  L 572.69 300.52
  L 572.71 574.00
  L 572.44 595.57
  Z"
/>
<path fill="#8b8c89" fill-opacity="0.996" d="
  M 546.57 200.04
  L 546.13 202.78
  L 545.98 205.00
  L 546.06 614.50
  L 546.11 625.35
  L 545.36 613.14
  L 545.11 598.00
  L 545.18 226.03
  L 545.31 214.14
  L 545.68 202.25
  L 545.87 201.17
  L 546.33 200.31
  L 546.33 200.31
  L 546.57 200.04
  Z"
/>
<path fill="#8b8c89" fill-opacity="0.996" d="
  M 475.95 202.85
  L 457.79 203.03
  L 432.96 203.00
  L 414.25 202.96
  L 399.04 202.83
  L 388.95 202.41
  L 432.13 202.25
  L 475.25 202.41
  L 475.88 202.64
  L 475.95 202.85
  Z"
/>
<path fill="#8b8c89" fill-opacity="0.996" d="
  M 479.35 206.27
  L 479.06 204.98
  L 479.38 205.41
  L 479.35 206.27
  Z"
/>
<path fill="#8b8c89" fill-opacity="0.996" d="
  M 425.01 228.65
  L 404.76 228.53
  L 409.24 228.06
  L 413.71 227.87
  L 413.71 227.87
  L 419.36 228.04
  L 425.01 228.65
  Z"
/>
<path fill="#8b8c89" fill-opacity="0.996" d="
  M 444.00 228.55
  L 431.74 228.55
  L 435.15 228.13
  L 438.55 228.03
  L 438.55 228.03
  L 441.28 228.18
  L 444.00 228.55
  Z"
/>
<path fill="#8b8c89" fill-opacity="0.996" d="
  M 651.51 228.66
  L 623.78 228.64
  L 627.07 228.13
  L 631.25 227.94
  L 636.20 227.85
  L 645.59 227.86
  L 648.78 228.15
  L 651.51 228.66
  Z"
/>
<path fill="#202026" d="
  M 623.78 228.64
  L 651.51 228.66
  L 652.15 228.62
  L 652.67 228.78
  L 653.85 229.29
  L 655.07 229.57
  L 656.29 229.64
  L 657.19 229.91
  L 658.10 230.57
  L 659.66 231.37
  L 661.38 231.90
  L 663.03 233.14
  L 664.96 234.87
  L 666.73 236.79
  L 668.35 238.90
  L 669.81 241.20
  L 671.37 244.50
  L 672.45 248.20
  L 672.26 275.33
  L 672.43 301.00
  L 672.19 303.54
  L 671.41 307.05
  L 669.87 308.94
  L 668.24 310.40
  L 666.52 311.43
  L 664.70 312.04
  L 662.57 312.22
  L 660.31 311.86
  L 657.95 310.96
  L 655.47 309.53
  L 654.89 308.83
  L 654.84 308.57
  L 652.88 304.07
  L 652.55 301.54
  L 652.68 299.03
  L 652.98 279.53
  L 652.95 260.00
  L 652.60 253.26
  L 652.77 252.34
  L 652.66 251.52
  L 652.66 251.52
  L 651.97 250.47
  L 651.72 249.97
  L 651.51 249.41
  L 650.94 248.80
  L 650.16 248.42
  L 647.76 248.11
  L 623.58 248.33
  L 622.58 248.20
  L 618.50 247.09
  L 617.04 245.78
  L 615.37 243.52
  L 614.78 240.78
  L 614.62 238.04
  L 614.94 235.04
  L 615.37 233.96
  L 615.96 233.04
  L 618.43 230.87
  L 618.43 230.87
  L 620.03 229.87
  L 621.75 229.05
  L 621.87 228.97
  L 621.87 228.97
  L 622.74 228.66
  L 623.78 228.64
  Z"
/>
<path fill="#8b8c89" fill-opacity="0.996" d="
  M 656.29 229.64
  L 655.07 229.57
  L 653.85 229.29
  L 652.67 228.78
  L 654.26 228.93
  L 656.29 229.64
  Z"
/>
<path fill="#8b8c89" fill-opacity="0.996" d="
  M 621.75 229.05
  L 620.03 229.87
  L 618.43 230.87
  L 618.43 230.87
  L 615.96 233.04
  L 616.96 231.48
  L 618.23 230.30
  L 619.84 229.47
  L 621.75 229.05
  Z"
/>
<path fill="#8b8c89" fill-opacity="0.996" d="
  M 450.83 231.60
  L 447.20 229.33
  L 448.66 229.71
  L 449.84 230.41
  L 449.84 230.41
  L 450.83 231.60
  Z"
/>
<path fill="#8b8c89" fill-opacity="0.996" d="
  M 661.38 231.90
  L 659.66 231.37
  L 658.10 230.57
  L 657.19 229.91
  L 657.80 230.08
  L 659.64 230.83
  L 661.38 231.90
  Z"
/>
<path fill="#8b8c89" fill-opacity="0.996" d="
  M 614.94 235.04
  L 614.62 238.04
  L 614.78 240.78
  L 615.37 243.52
  L 614.47 241.93
  L 613.99 240.27
  L 613.89 239.01
  L 614.02 237.73
  L 614.94 235.04
  Z"
/>
<path fill="#8b8c89" fill-opacity="0.996" d="
  M 452.70 309.02
  L 452.39 290.65
  L 452.28 272.28
  L 452.66 235.52
  L 453.05 266.07
  L 452.91 296.62
  L 452.91 296.62
  L 452.70 309.02
  Z"
/>
<path fill="#8b8c89" fill-opacity="0.996" d="
  M 651.72 249.97
  L 650.96 249.34
  L 650.25 249.14
  L 635.72 249.10
  L 623.27 248.72
  L 620.88 248.25
  L 618.50 247.09
  L 622.58 248.20
  L 623.58 248.33
  L 647.76 248.11
  L 650.16 248.42
  L 650.94 248.80
  L 651.51 249.41
  L 651.72 249.97
  Z"
/>
<path fill="#8b8c89" fill-opacity="0.996" d="
  M 433.83 320.32
  L 433.08 314.46
  L 432.84 309.50
  L 432.98 250.14
  L 432.68 249.41
  L 431.96 249.11
  L 405.77 248.94
  L 412.38 248.42
  L 419.06 248.13
  L 425.80 248.08
  L 432.60 248.27
  L 433.16 248.52
  L 433.39 249.09
  L 433.83 320.32
  Z"
/>
<path fill="#8b8c89" fill-opacity="0.996" d="
  M 672.45 248.20
  L 672.92 261.38
  L 673.16 274.57
  L 673.17 287.77
  L 672.94 300.98
  L 672.51 304.15
  L 671.41 307.05
  L 672.19 303.54
  L 672.43 301.00
  L 672.26 275.33
  L 672.45 248.20
  Z"
/>
<path fill="#8b8c89" fill-opacity="0.996" d="
  M 652.60 253.26
  L 652.03 251.20
  L 651.97 250.47
  L 652.66 251.52
  L 652.66 251.52
  L 652.77 252.34
  L 652.60 253.26
  Z"
/>
<path fill="#8b8c89" fill-opacity="0.996" d="
  M 403.89 250.99
  L 403.54 251.57
  L 402.59 252.29
  L 403.06 251.45
  L 403.89 250.99
  Z"
/>
<path fill="#8b8c89" fill-opacity="0.996" d="
  M 402.07 253.03
  L 396.58 258.52
  L 402.07 253.03
  Z"
/>
<path fill="#8b8c89" fill-opacity="0.996" d="
  M 396.25 258.76
  L 396.24 258.88
  L 396.15 259.07
  L 369.94 285.44
  L 381.51 273.23
  L 393.35 261.29
  L 393.35 261.29
  L 395.59 259.10
  L 396.25 258.76
  Z"
/>
<path fill="#8b8c89" fill-opacity="0.996" d="
  M 322.03 269.06
  L 321.28 270.05
  L 320.40 270.87
  L 320.40 270.87
  L 319.87 271.24
  L 320.68 270.03
  L 321.71 269.21
  L 322.03 269.06
  Z"
/>
<path fill="#8b8c89" fill-opacity="0.996" d="
  M 318.99 272.24
  L 283.46 307.64
  L 318.99 272.24
  Z"
/>
<path fill="#8b8c89" fill-opacity="0.996" d="
  M 267.90 294.99
  L 267.58 295.92
  L 267.04 296.56
  L 267.04 296.56
  L 265.95 296.96
  L 266.51 296.17
  L 267.90 294.99
  Z"
/>
<path fill="#8b8c89" fill-opacity="0.996" d="
  M 264.73 297.89
  L 264.95 298.07
  L 264.93 298.40
  L 257.96 304.94
  L 264.73 297.89
  Z"
/>
<path fill="#8b8c89" fill-opacity="0.996" d="
  M 652.55 301.54
  L 652.24 300.71
  L 652.24 300.71
  L 652.30 299.89
  L 652.68 299.03
  L 652.55 301.54
  Z"
/>
<path fill="#8b8c89" fill-opacity="0.996" d="
  M 654.84 308.57
  L 654.04 307.71
  L 653.44 306.74
  L 653.44 306.74
  L 653.02 305.48
  L 652.88 304.07
  L 654.84 308.57
  Z"
/>
<path fill="#8b8c89" fill-opacity="0.996" d="
  M 475.77 323.04
  L 477.00 320.95
  L 478.06 318.74
  L 479.69 313.97
  L 479.63 315.51
  L 479.36 317.01
  L 479.36 317.01
  L 478.84 318.61
  L 478.06 320.15
  L 477.04 321.62
  L 475.77 323.04
  Z"
/>
<path fill="#8b8c89" fill-opacity="0.996" d="
  M 664.8986 347.6224
  L 662.0163 347.7752
  L 659.1560 347.3490
  L 656.4278 346.3603
  L 653.9363 344.8470
  L 651.7774 342.8673
  L 650.0340 340.4972
  L 648.7732 337.8279
  L 648.0433 334.9620
  L 647.8724 332.0094
  L 648.2671 329.0838
  L 649.2123 326.2976
  L 650.6715 323.7577
  L 652.5888 321.5619
  L 654.8904 319.7946
  L 657.4879 318.5235
  L 660.2814 317.7976
  L 663.1637 317.6448
  L 666.0240 318.0710
  L 668.7522 319.0597
  L 671.2437 320.5730
  L 673.4026 322.5527
  L 675.1460 324.9228
  L 676.4068 327.5921
  L 677.1367 330.4580
  L 677.3076 333.4106
  L 676.9129 336.3362
  L 675.9677 339.1224
  L 674.5085 341.6623
  L 672.5912 343.8581
  L 670.2896 345.6254
  L 667.6921 346.8965
  L 664.8986 347.6224
  Z
  M 666.1894 346.5315
  L 668.7278 345.5883
  L 671.0311 344.1533
  L 673.0108 342.2816
  L 674.5908 340.0452
  L 675.7104 337.5299
  L 676.3266 334.8325
  L 676.4156 332.0566
  L 675.9741 329.3089
  L 675.0190 326.6950
  L 673.5870 324.3153
  L 671.7332 322.2612
  L 669.5288 320.6118
  L 667.0585 319.4304
  L 664.4173 318.7624
  L 661.7066 318.6334
  L 659.0306 319.0485
  L 656.4922 319.9917
  L 654.1889 321.4267
  L 652.2092 323.2984
  L 650.6292 325.5348
  L 649.5096 328.0501
  L 648.8934 330.7475
  L 648.8044 333.5234
  L 649.2459 336.2711
  L 650.2010 338.8850
  L 651.6330 341.2647
  L 653.4868 343.3188
  L 655.6912 344.9682
  L 658.1615 346.1496
  L 660.8027 346.8176
  L 663.5134 346.9466
  L 666.1894 346.5315
  Z"
/>
<ellipse fill="#f29d3f" cx="0.00" cy="0.00" transform="translate(662.61,332.79) rotate(75.4)" rx="14.20" ry="13.81"/>
<path fill="#8b8c89" fill-opacity="0.996" d="
  M 470.22 326.05
  L 467.53 326.81
  L 464.92 326.87
  L 464.92 326.87
  L 463.12 326.48
  L 461.35 325.74
  L 470.22 326.05
  Z"
/>
<path fill="#8b8c89" fill-opacity="0.996" d="
  M 405.05 346.48
  L 404.77 349.33
  L 403.94 352.07
  L 402.59 354.59
  L 400.77 356.80
  L 398.56 358.62
  L 396.04 359.97
  L 393.30 360.80
  L 390.45 361.08
  L 387.60 360.80
  L 384.86 359.97
  L 382.34 358.62
  L 380.13 356.80
  L 378.31 354.59
  L 376.96 352.07
  L 376.13 349.33
  L 375.85 346.48
  L 376.13 343.63
  L 376.96 340.89
  L 378.31 338.37
  L 380.13 336.16
  L 382.34 334.34
  L 384.86 332.99
  L 387.60 332.16
  L 390.45 331.88
  L 393.30 332.16
  L 396.04 332.99
  L 398.56 334.34
  L 400.77 336.16
  L 402.59 338.37
  L 403.94 340.89
  L 404.77 343.63
  L 405.05 346.48
  Z
  M 392.2191 360.1667
  L 394.8279 359.5781
  L 397.2714 358.4834
  L 399.4559 356.9247
  L 401.2974 354.9620
  L 402.7251 352.6707
  L 403.6842 350.1387
  L 404.1377 347.4634
  L 404.0683 344.7477
  L 403.4787 342.0958
  L 402.3914 339.6098
  L 400.8483 337.3850
  L 398.9087 335.5071
  L 396.6470 334.0482
  L 394.1504 333.0643
  L 391.5145 332.5933
  L 388.8409 332.6533
  L 386.2321 333.2419
  L 383.7886 334.3366
  L 381.6041 335.8953
  L 379.7626 337.8580
  L 378.3349 340.1493
  L 377.3758 342.6813
  L 376.9223 345.3566
  L 376.9917 348.0723
  L 377.5813 350.7242
  L 378.6686 353.2102
  L 380.2117 355.4350
  L 382.1513 357.3129
  L 384.4130 358.7718
  L 386.9096 359.7557
  L 389.5455 360.2267
  L 392.2191 360.1667
  Z"
/>
<path fill="#8b8c89" fill-opacity="0.996" d="
  M 323.91 331.88
  L 323.79 332.20
  L 323.15 333.10
  L 322.10 333.82
  L 322.11 333.79
  L 322.11 333.79
  L 322.75 332.75
  L 323.91 331.88
  Z"
/>
<ellipse fill="#f29d3f" cx="0.00" cy="0.00" transform="translate(390.53,346.41) rotate(83.0)" rx="13.86" ry="13.64"/>
<path fill="#8b8c89" fill-opacity="0.996" d="
  M 440.61 334.08
  L 439.60 332.76
  L 440.45 333.16
  L 440.61 334.08
  Z"
/>
<path fill="#8b8c89" fill-opacity="0.996" d="
  M 317.70 338.52
  L 271.19 384.81
  L 317.70 338.52
  Z"
/>
<path fill="#8b8c89" fill-opacity="0.996" d="
  M 482.89 341.54
  L 479.95 343.00
  L 481.70 341.87
  L 482.89 341.54
  Z"
/>
<path fill="#8b8c89" fill-opacity="0.996" d="
  M 479.31 343.29
  L 474.78 344.82
  L 476.21 344.13
  L 479.31 343.29
  Z"
/>
<circle fill="#f29d3f" cx="337.72" cy="365.04" r="14.75"/>
<path fill="#8b8c89" fill-opacity="0.996" d="
  M 837.55 409.40
  L 790.81 362.73
  L 794.91 366.24
  L 799.88 371.13
  L 834.57 405.94
  L 837.55 409.40
  Z"
/>
<path fill="#f29d3f" d="
  M 676.44 436.42
  L 674.89 437.06
  L 669.85 437.95
  L 664.22 438.64
  L 661.31 438.78
  L 658.90 438.65
  L 656.35 438.30
  L 649.59 436.70
  L 648.54 436.42
  L 645.55 435.27
  L 641.98 433.29
  L 638.67 430.96
  L 636.17 428.67
  L 633.56 425.58
  L 631.33 422.46
  L 629.46 419.33
  L 627.97 416.17
  L 626.79 412.88
  L 625.93 409.51
  L 625.93 409.51
  L 625.34 405.56
  L 625.18 401.52
  L 625.35 398.25
  L 625.79 395.02
  L 625.79 395.02
  L 626.54 391.69
  L 627.58 388.41
  L 628.91 385.19
  L 630.53 382.01
  L 631.73 380.10
  L 633.12 378.29
  L 636.60 374.78
  L 641.01 371.41
  L 646.26 368.26
  L 650.13 366.50
  L 654.09 365.30
  L 657.57 364.72
  L 661.09 364.53
  L 664.72 364.75
  L 668.36 365.37
  L 673.18 366.59
  L 676.97 367.88
  L 680.16 369.38
  L 682.80 371.13
  L 685.38 373.34
  L 687.86 375.77
  L 690.13 378.35
  L 692.07 380.94
  L 693.74 383.55
  L 695.17 386.28
  L 696.27 388.97
  L 697.10 391.74
  L 698.00 396.52
  L 698.35 401.17
  L 698.17 405.70
  L 697.43 410.10
  L 697.43 410.10
  L 697.43 410.10
  L 697.43 410.10
  L 696.40 413.68
  L 694.99 417.17
  L 693.21 420.57
  L 691.04 423.88
  L 690.29 424.89
  L 687.74 427.80
  L 684.76 430.53
  L 681.25 433.22
  L 676.44 436.42
  Z
  M 647.44 408.53
  L 647.38 409.02
  L 647.34 409.50
  L 647.56 409.94
  L 652.00 414.83
  L 652.68 415.54
  L 656.30 417.04
  L 659.77 417.89
  L 663.03 418.06
  L 666.07 417.58
  L 668.28 416.79
  L 670.45 415.57
  L 672.09 414.34
  L 673.50 412.99
  L 674.68 411.53
  L 675.63 409.95
  L 675.63 409.95
  L 676.05 409.04
  L 677.00 406.33
  L 677.55 403.69
  L 677.71 401.11
  L 677.48 398.61
  L 677.48 398.61
  L 677.48 398.61
  L 677.48 398.61
  L 676.90 396.31
  L 675.97 394.07
  L 674.70 391.90
  L 673.07 389.78
  L 672.50 389.17
  L 670.85 387.88
  L 668.84 386.87
  L 666.38 386.11
  L 663.21 385.52
  L 661.69 385.40
  L 660.01 385.50
  L 658.33 385.85
  L 656.65 386.44
  L 654.97 387.29
  L 653.66 387.66
  L 652.80 387.93
  L 649.95 390.46
  L 647.79 393.39
  L 647.79 393.39
  L 647.79 393.39
  L 646.55 396.04
  L 645.76 398.95
  L 645.71 399.75
  L 646.21 408.18
  L 646.38 408.57
  L 646.71 408.63
  L 646.92 408.53
  L 646.97 408.48
  L 647.01 408.44
  L 647.25 408.38
  L 647.44 408.53
  Z"
/>
<path fill="#8b8c89" fill-opacity="0.996" d="
  M 779.27 378.48
  L 775.82 375.91
  L 775.87 375.64
  L 776.02 375.53
  L 776.08 375.51
  L 776.45 375.61
  L 777.51 376.40
  L 778.46 377.36
  L 779.27 378.48
  Z"
/>
<path fill="#8b8c89" fill-opacity="0.996" d="
  M 782.53 381.97
  L 779.27 378.48
  L 780.52 379.39
  L 781.56 380.46
  L 781.56 380.46
  L 782.53 381.97
  Z"
/>
<path fill="#8b8c89" fill-opacity="0.996" d="
  M 738.52 387.38
  L 737.90 390.46
  L 737.70 393.54
  L 737.70 393.54
  L 737.70 393.54
  L 737.92 396.63
  L 738.56 399.71
  L 737.46 396.70
  L 737.07 393.67
  L 737.07 393.67
  L 737.07 393.67
  L 737.41 390.53
  L 738.52 387.38
  Z"
/>
<path fill="#8b8c89" fill-opacity="0.996" d="
  M 652.59 389.12
  L 652.60 389.33
  L 652.27 389.40
  L 652.19 389.35
  L 652.13 389.15
  L 652.28 389.00
  L 652.48 389.00
  L 652.59 389.12
  Z"
/>
<path fill="#8b8c89" fill-opacity="0.996" d="
  M 760.50 390.82
  L 758.99 392.27
  L 759.01 391.92
  L 759.48 391.30
  L 760.50 390.82
  Z"
/>
<path fill="#8b8c89" fill-opacity="0.996" d="
  M 758.76 392.54
  L 758.65 392.93
  L 758.89 393.36
  L 762.70 397.07
  L 766.26 401.07
  L 758.77 393.74
  L 758.55 393.21
  L 758.76 392.54
  Z"
/>
<path fill="#8b8c89" fill-opacity="0.996" d="
  M 194.74 399.67
  L 193.89 399.31
  L 193.41 399.33
  L 193.00 399.57
  L 184.01 408.45
  L 193.05 398.83
  L 193.68 398.66
  L 193.86 398.72
  L 194.35 399.08
  L 194.74 399.67
  Z"
/>
<path fill="#8b8c89" fill-opacity="0.996" d="
  M 778.04 412.90
  L 766.51 401.28
  L 778.04 412.90
  Z"
/>
<ellipse fill="#f29d3f" cx="0.00" cy="0.00" transform="translate(316.76,416.61) rotate(23.8)" rx="15.15" ry="14.69"/>
<path fill="#8b8c89" fill-opacity="0.996" d="
  M 479.45 409.59
  L 478.53 405.66
  L 479.10 406.38
  L 479.46 407.17
  L 479.64 408.32
  L 479.45 409.59
  Z"
/>
<path fill="#8b8c89" fill-opacity="0.996" d="
  M 154.48 418.96
  L 154.18 417.30
  L 154.14 415.37
  L 154.41 413.41
  L 155.00 411.41
  L 155.90 409.38
  L 154.48 418.96
  Z"
/>
<path fill="#8b8c89" fill-opacity="0.996" d="
  M 842.00 414.00
  L 840.35 412.73
  L 838.91 411.27
  L 838.91 411.27
  L 837.55 409.40
  L 838.79 410.36
  L 838.79 410.36
  L 840.50 412.05
  L 842.00 414.00
  Z"
/>
<path fill="#8b8c89" fill-opacity="0.996" d="
  M 782.01 417.00
  L 780.20 415.52
  L 778.72 413.54
  L 780.53 415.02
  L 782.01 417.00
  Z"
/>
<path fill="#8b8c89" fill-opacity="0.996" d="
  M 353.50 418.99
  L 353.18 417.60
  L 353.11 416.23
  L 353.11 416.23
  L 353.61 413.85
  L 353.50 418.99
  Z"
/>
<path fill="#8b8c89" fill-opacity="0.996" d="
  M 784.99 420.04
  L 784.24 419.57
  L 784.24 419.57
  L 783.41 418.75
  L 782.77 417.70
  L 783.61 418.32
  L 784.99 420.04
  Z"
/>
<path fill="#8b8c89" fill-opacity="0.996" d="
  M 849.71 421.79
  L 848.76 421.21
  L 848.76 421.21
  L 847.92 420.36
  L 847.26 419.29
  L 847.75 419.60
  L 848.83 420.56
  L 849.71 421.79
  Z"
/>
<path fill="#8b8c89" fill-opacity="0.996" d="
  M 356.71 431.30
  L 355.22 428.32
  L 355.22 428.32
  L 354.57 426.27
  L 354.16 424.12
  L 356.71 431.30
  Z"
/>
<path fill="#8b8c89" fill-opacity="0.996" d="
  M 225.27 430.30
  L 224.52 429.85
  L 223.41 428.80
  L 224.05 428.95
  L 224.74 429.45
  L 225.27 430.30
  Z"
/>
<path fill="#8b8c89" fill-opacity="0.996" d="
  M 231.26 436.51
  L 231.09 436.41
  L 230.21 435.69
  L 229.45 434.77
  L 230.21 435.03
  L 230.78 435.47
  L 230.78 435.47
  L 231.26 436.51
  Z"
/>
<path fill="#8b8c89" fill-opacity="0.996" d="
  M 452.38 435.67
  L 452.83 441.01
  L 453.10 450.00
  L 453.07 504.66
  L 453.04 556.62
  L 452.82 594.62
  L 452.66 596.05
  L 452.21 597.34
  L 452.21 597.34
  L 451.62 598.29
  L 452.54 594.82
  L 452.60 594.41
  L 452.38 435.67
  Z"
/>
<path fill="#8b8c89" fill-opacity="0.996" d="
  M 233.30 438.27
  L 232.31 437.71
  L 231.56 436.98
  L 231.26 436.51
  L 232.74 437.51
  L 233.30 438.27
  Z"
/>
<path fill="#8b8c89" fill-opacity="0.996" d="
  M 775.57 438.51
  L 775.11 438.26
  L 774.51 437.69
  L 774.06 436.91
  L 774.81 437.33
  L 775.57 438.51
  Z"
/>
<path fill="#8b8c89" fill-opacity="0.996" d="
  M 364.01 441.17
  L 362.99 440.38
  L 361.47 438.50
  L 364.01 441.17
  Z"
/>
<path fill="#8b8c89" fill-opacity="0.996" d="
  M 241.02 446.12
  L 234.27 439.37
  L 241.02 446.12
  Z"
/>
<path fill="#8b8c89" fill-opacity="0.996" d="
  M 870.42 446.59
  L 870.47 446.73
  L 870.94 449.06
  L 870.88 451.57
  L 870.29 454.25
  L 869.17 457.10
  L 870.42 446.59
  Z"
/>
<path fill="#8b8c89" fill-opacity="0.996" d="
  M 257.29 462.48
  L 242.80 447.89
  L 257.29 462.48
  Z"
/>
<path fill="#8b8c89" fill-opacity="0.996" d="
  M 433.49 450.97
  L 433.29 450.65
  L 432.96 449.26
  L 433.25 449.26
  L 433.53 449.65
  L 433.60 450.55
  L 433.49 450.97
  Z"
/>
<path fill="#f29d3f" d="
  M 346.19 478.90
  L 344.33 480.03
  L 342.45 480.89
  L 340.54 481.48
  L 338.60 481.80
  L 338.60 481.80
  L 335.30 481.73
  L 331.92 480.89
  L 330.02 479.93
  L 328.20 478.66
  L 326.46 477.08
  L 324.80 475.20
  L 324.06 474.09
  L 323.50 472.88
  L 322.85 469.99
  L 322.85 466.56
  L 323.51 462.95
  L 324.11 461.38
  L 325.00 459.91
  L 326.23 458.44
  L 327.69 457.11
  L 329.46 455.82
  L 331.53 454.62
  L 333.71 453.63
  L 335.82 452.91
  L 336.83 452.78
  L 340.29 453.07
  L 343.31 453.81
  L 345.90 455.00
  L 348.05 456.64
  L 348.05 456.64
  L 349.77 458.74
  L 351.05 461.30
  L 351.89 464.31
  L 352.29 467.77
  L 352.08 470.99
  L 351.70 472.46
  L 351.13 473.83
  L 351.13 473.83
  L 351.13 473.83
  L 350.26 475.28
  L 349.14 476.61
  L 347.79 477.81
  L 346.19 478.90
  Z"
/>
<path fill="#8b8c89" fill-opacity="0.996" d="
  M 433.26 582.47
  L 432.92 572.40
  L 432.84 558.00
  L 432.96 456.55
  L 433.47 452.82
  L 433.82 461.00
  L 433.73 558.25
  L 433.65 571.78
  L 433.26 582.47
  Z"
/>
<path fill="#202026" d="
  M 661.70 456.38
  L 661.80 456.42
  L 663.08 456.66
  L 664.56 456.41
  L 666.43 457.10
  L 668.17 458.02
  L 668.17 458.02
  L 668.17 458.02
  L 669.57 459.01
  L 670.86 460.17
  L 672.27 464.26
  L 672.41 465.13
  L 672.32 518.29
  L 670.21 525.92
  L 669.43 526.69
  L 669.43 526.69
  L 668.60 528.02
  L 668.10 529.61
  L 666.19 532.13
  L 663.77 534.48
  L 660.86 536.64
  L 657.44 538.62
  L 653.02 539.11
  L 648.57 539.51
  L 629.00 539.64
  L 623.22 539.28
  L 620.81 538.85
  L 618.73 538.27
  L 616.52 536.03
  L 615.60 533.94
  L 614.64 532.50
  L 614.55 531.80
  L 614.64 531.40
  L 614.64 531.40
  L 614.77 530.10
  L 614.63 528.74
  L 615.12 526.74
  L 615.84 525.00
  L 616.78 523.53
  L 617.94 522.33
  L 617.94 522.33
  L 617.94 522.33
  L 619.27 521.43
  L 620.81 520.77
  L 622.56 520.37
  L 624.51 520.21
  L 649.59 519.89
  L 650.61 519.74
  L 651.42 519.33
  L 651.42 519.33
  L 652.25 518.17
  L 652.58 516.37
  L 653.06 494.16
  L 652.95 465.50
  L 653.03 464.08
  L 653.29 462.85
  L 655.20 460.08
  L 657.29 457.95
  L 658.39 457.28
  L 658.39 457.28
  L 659.97 456.68
  L 661.70 456.38
  Z"
/>
<path fill="#8b8c89" fill-opacity="0.996" d="
  M 664.56 456.41
  L 663.08 456.66
  L 661.80 456.42
  L 661.70 456.38
  L 663.08 456.19
  L 664.56 456.41
  Z"
/>
<path fill="#8b8c89" fill-opacity="0.996" d="
  M 657.29 457.95
  L 655.20 460.08
  L 653.29 462.85
  L 653.79 461.18
  L 654.64 459.80
  L 654.64 459.80
  L 654.64 459.80
  L 655.80 458.74
  L 657.29 457.95
  Z"
/>
<path fill="#8b8c89" fill-opacity="0.996" d="
  M 259.98 500.81
  L 217.97 458.54
  L 218.76 459.06
  L 239.54 479.76
  L 259.98 500.81
  Z"
/>
<path fill="#8b8c89" fill-opacity="0.996" d="
  M 672.32 518.29
  L 672.41 465.13
  L 672.27 464.26
  L 670.86 460.17
  L 671.13 460.61
  L 671.13 460.61
  L 671.91 462.20
  L 672.48 463.93
  L 672.83 465.77
  L 672.97 467.75
  L 673.14 490.62
  L 673.05 509.25
  L 672.84 513.33
  L 672.32 518.29
  Z"
/>
<path fill="#8b8c89" fill-opacity="0.996" d="
  M 258.27 463.47
  L 257.72 463.09
  L 257.29 462.48
  L 257.98 462.98
  L 258.27 463.47
  Z"
/>
<path fill="#8b8c89" fill-opacity="0.996" d="
  M 803.05 466.36
  L 800.43 464.27
  L 800.01 464.10
  L 799.57 464.16
  L 798.95 464.50
  L 797.66 465.79
  L 798.27 464.59
  L 799.11 463.68
  L 799.54 463.38
  L 799.97 463.27
  L 800.40 463.41
  L 801.83 464.69
  L 803.05 466.36
  Z"
/>
<path fill="#8b8c89" fill-opacity="0.996" d="
  M 270.30 475.52
  L 258.27 463.47
  L 270.30 475.52
  Z"
/>
<path fill="#8b8c89" fill-opacity="0.996" d="
  M 769.07 465.80
  L 762.20 472.69
  L 769.07 465.80
  Z"
/>
<path fill="#8b8c89" fill-opacity="0.996" d="
  M 821.50 484.79
  L 804.21 467.49
  L 821.50 484.79
  Z"
/>
<circle fill="#f29d3f" cx="390.30" cy="486.19" r="14.70"/>
<path fill="#8b8c89" fill-opacity="0.996" d="
  M 760.74 474.22
  L 760.60 474.82
  L 760.60 474.82
  L 760.11 475.40
  L 759.26 475.82
  L 759.71 475.05
  L 760.74 474.22
  Z"
/>
<path fill="#8b8c89" fill-opacity="0.996" d="
  M 346.19 478.90
  L 345.11 479.93
  L 343.88 480.82
  L 340.95 482.20
  L 339.41 482.62
  L 337.94 482.82
  L 336.52 482.80
  L 335.17 482.56
  L 335.17 482.56
  L 333.49 481.91
  L 331.92 480.89
  L 335.30 481.73
  L 338.60 481.80
  L 338.60 481.80
  L 340.54 481.48
  L 342.45 480.89
  L 344.33 480.03
  L 346.19 478.90
  Z"
/>
<path fill="#8b8c89" fill-opacity="0.996" d="
  M 824.89 487.38
  L 823.26 486.50
  L 821.94 485.34
  L 821.50 484.79
  L 822.56 485.34
  L 822.56 485.34
  L 823.79 486.25
  L 824.89 487.38
  Z"
/>
<path fill="#8b8c89" fill-opacity="0.996" d="
  M 836.73 488.15
  L 834.17 489.01
  L 831.66 489.19
  L 830.29 489.00
  L 828.94 488.60
  L 836.73 488.15
  Z"
/>
<path fill="#8b8c89" fill-opacity="0.996" d="
  M 263.00 503.99
  L 261.96 503.20
  L 260.75 501.55
  L 261.41 502.03
  L 261.41 502.03
  L 262.28 502.92
  L 263.00 503.99
  Z"
/>
<path fill="#8b8c89" fill-opacity="0.996" d="
  M 266.47 507.64
  L 264.73 506.15
  L 263.71 504.75
  L 265.55 506.31
  L 266.47 507.64
  Z"
/>
<path fill="#8b8c89" fill-opacity="0.996" d="
  M 809.53 512.21
  L 809.73 515.13
  L 809.20 517.78
  L 809.20 517.78
  L 809.20 517.78
  L 808.53 519.24
  L 807.61 520.61
  L 802.00 526.70
  L 791.83 536.57
  L 792.44 535.88
  L 792.44 535.88
  L 799.02 528.76
  L 805.97 521.97
  L 807.38 520.21
  L 808.98 517.39
  L 809.12 516.88
  L 809.53 512.21
  Z"
/>
<path fill="#8b8c89" fill-opacity="0.996" d="
  M 343.45 521.46
  L 346.96 524.47
  L 350.02 528.05
  L 347.97 526.41
  L 346.09 524.61
  L 346.09 524.61
  L 343.45 521.46
  Z"
/>
<path fill="#8b8c89" fill-opacity="0.996" d="
  M 670.21 525.92
  L 669.38 527.81
  L 668.10 529.61
  L 668.60 528.02
  L 669.43 526.69
  L 669.43 526.69
  L 670.21 525.92
  Z"
/>
<path fill="#8b8c89" fill-opacity="0.996" d="
  M 323.61 529.63
  L 322.94 529.22
  L 322.94 529.22
  L 322.01 528.36
  L 321.26 527.25
  L 321.99 527.74
  L 321.99 527.74
  L 322.87 528.59
  L 323.61 529.63
  Z"
/>
<path fill="#8b8c89" fill-opacity="0.996" d="
  M 614.63 528.74
  L 614.77 530.10
  L 614.64 531.40
  L 614.64 531.40
  L 614.55 531.80
  L 614.27 531.26
  L 614.17 530.10
  L 614.63 528.74
  Z"
/>
<path fill="#8b8c89" fill-opacity="0.996" d="
  M 351.39 529.55
  L 352.45 530.27
  L 353.36 531.12
  L 353.36 531.12
  L 354.27 532.37
  L 352.97 531.47
  L 351.93 530.38
  L 351.39 529.55
  Z"
/>
<path fill="#8b8c89" fill-opacity="0.996" d="
  M 616.52 536.03
  L 615.72 535.10
  L 615.12 534.08
  L 615.12 534.08
  L 614.64 532.50
  L 615.60 533.94
  L 616.52 536.03
  Z"
/>
<path fill="#8b8c89" fill-opacity="0.996" d="
  M 354.86 532.89
  L 355.93 533.66
  L 356.73 534.60
  L 357.04 535.13
  L 356.04 534.46
  L 354.86 532.89
  Z"
/>
<path fill="#8b8c89" fill-opacity="0.996" d="
  M 332.53 538.60
  L 330.93 537.20
  L 330.27 536.22
  L 331.59 537.34
  L 332.53 538.60
  Z"
/>
<path fill="#8b8c89" fill-opacity="0.996" d="
  M 727.00 537.03
  L 713.77 550.29
  L 727.00 537.03
  Z"
/>
<path fill="#8b8c89" fill-opacity="0.996" d="
  M 657.44 538.62
  L 649.66 539.57
  L 641.53 540.10
  L 633.06 540.22
  L 624.26 539.93
  L 621.17 539.43
  L 619.87 538.93
  L 618.73 538.27
  L 620.81 538.85
  L 623.22 539.28
  L 629.00 539.64
  L 648.57 539.51
  L 653.02 539.11
  L 657.44 538.62
  Z"
/>
<path fill="#8b8c89" fill-opacity="0.996" d="
  M 351.81 558.06
  L 334.28 540.39
  L 351.81 558.06
  Z"
/>
<path fill="#8b8c89" fill-opacity="0.996" d="
  M 302.94 544.36
  L 317.72 559.62
  L 310.08 552.34
  L 302.83 544.72
  L 302.79 544.64
  L 302.94 544.36
  Z"
/>
<path fill="#8b8c89" fill-opacity="0.996" d="
  M 713.77 550.29
  L 712.73 551.52
  L 711.19 552.77
  L 712.07 551.66
  L 713.10 550.74
  L 713.10 550.74
  L 713.77 550.29
  Z"
/>
<path fill="#8b8c89" fill-opacity="0.996" d="
  M 711.19 552.77
  L 711.19 552.81
  L 710.84 553.56
  L 697.06 567.47
  L 682.95 581.09
  L 711.19 552.77
  Z"
/>
<path fill="#8b8c89" fill-opacity="0.996" d="
  M 744.75 555.22
  L 739.32 560.61
  L 741.26 558.25
  L 743.46 556.20
  L 744.75 555.22
  Z"
/>
<path fill="#8b8c89" fill-opacity="0.996" d="
  M 353.71 560.13
  L 351.94 558.27
  L 352.77 558.74
  L 353.36 559.37
  L 353.71 560.13
  Z"
/>
<path fill="#8b8c89" fill-opacity="0.996" d="
  M 319.92 561.98
  L 325.19 567.33
  L 319.92 561.98
  Z"
/>
<path fill="#8b8c89" fill-opacity="0.996" d="
  M 732.79 567.23
  L 732.54 567.97
  L 732.04 568.43
  L 731.27 568.72
  L 731.81 567.98
  L 732.79 567.23
  Z"
/>
<path fill="#8b8c89" fill-opacity="0.996" d="
  M 591.99 581.66
  L 601.48 582.54
  L 592.29 582.66
  L 591.97 582.54
  L 591.69 582.02
  L 591.99 581.66
  Z"
/>
<path fill="#8b8c89" fill-opacity="0.996" d="
  M 639.99 582.51
  L 635.42 582.86
  L 630.86 582.90
  L 630.86 582.90
  L 626.31 582.61
  L 639.99 582.51
  Z"
/>
<path fill="#8b8c89" fill-opacity="0.996" d="
  M 680.30 583.80
  L 677.08 587.40
  L 673.71 590.85
  L 673.71 590.85
  L 667.68 596.34
  L 680.30 583.80
  Z"
/>
<path fill="#8b8c89" fill-opacity="0.996" d="
  M 672.58 627.12
  L 667.11 627.68
  L 659.75 627.87
  L 559.50 627.81
  L 553.14 627.61
  L 548.46 627.05
  L 672.58 627.12
  Z"
/>
<path fill="#8b8c89" fill-opacity="0.996" d="
  M 482.57 646.11
  L 479.35 646.50
  L 474.51 646.95
  L 467.85 647.03
  L 466.50 647.02
  L 386.75 647.02
  L 382.81 646.80
  L 379.17 646.13
  L 482.57 646.11
  Z"
/>
<path fill="#8b8c89" fill-opacity="0.996" d="
  M 546.53 711.62
  L 545.58 711.79
  L 543.79 711.57
  L 544.84 711.31
  L 545.82 711.37
  L 546.53 711.62
  Z"
/>
<path fill="#000000" d="
  M 543.79 711.57
  L 545.58 711.79
  L 546.53 711.62
  L 547.49 711.95
  L 549.96 714.72
  L 550.19 716.65
  L 549.96 718.44
  L 549.96 718.44
  L 549.77 719.03
  L 546.98 721.77
  L 546.32 721.93
  L 544.20 722.07
  L 541.99 721.70
  L 540.60 720.28
  L 539.74 718.68
  L 539.74 718.68
  L 539.74 718.68
  L 539.74 718.68
  L 539.44 717.43
  L 539.41 716.08
  L 539.64 714.64
  L 540.13 713.10
  L 541.82 712.15
  L 543.79 711.57
  Z"
/>
<path fill="#8b8c89" fill-opacity="0.996" d="
  M 549.96 714.72
  L 547.49 711.95
  L 548.56 712.27
  L 549.32 712.85
  L 549.78 713.66
  L 549.96 714.72
  Z"
/>
<path fill="#8b8c89" fill-opacity="0.996" d="
  M 540.13 713.10
  L 539.64 714.64
  L 539.41 716.08
  L 539.44 717.43
  L 539.74 718.68
  L 539.74 718.68
  L 540.60 720.28
  L 541.99 721.70
  L 540.40 721.01
  L 539.35 719.97
  L 539.35 719.97
  L 539.35 719.97
  L 538.85 718.70
  L 538.82 717.13
  L 539.24 715.27
  L 540.13 713.10
  Z"
/>
<path fill="#000000" d="
  M 333.21 715.36
  L 333.13 715.52
  L 333.50 715.77
  L 333.70 715.80
  L 334.25 715.55
  L 338.03 716.69
  L 338.58 717.06
  L 338.58 717.06
  L 338.80 717.64
  L 338.71 718.45
  L 337.72 720.04
  L 337.28 721.69
  L 337.27 722.56
  L 337.04 723.31
  L 336.57 723.66
  L 335.86 723.82
  L 333.70 723.57
  L 331.31 722.74
  L 329.13 722.35
  L 327.17 722.40
  L 325.43 722.90
  L 323.91 723.20
  L 322.50 723.73
  L 322.50 723.73
  L 321.09 724.54
  L 319.80 725.61
  L 318.49 727.06
  L 317.47 728.94
  L 316.73 731.26
  L 316.28 734.00
  L 316.09 738.53
  L 316.51 742.52
  L 317.53 745.96
  L 319.17 748.86
  L 320.72 750.06
  L 322.31 750.97
  L 323.93 751.62
  L 325.60 751.98
  L 327.97 752.03
  L 330.41 751.55
  L 330.16 751.68
  L 330.67 751.80
  L 330.71 751.80
  L 331.29 751.59
  L 331.54 751.02
  L 331.63 742.81
  L 331.49 742.50
  L 331.16 742.41
  L 331.16 742.41
  L 331.09 742.43
  L 330.79 742.44
  L 330.51 742.06
  L 330.11 741.89
  L 328.19 741.79
  L 325.42 741.93
  L 325.62 735.75
  L 325.97 734.96
  L 326.76 734.62
  L 338.23 734.38
  L 338.75 734.42
  L 338.94 734.50
  L 339.18 740.48
  L 339.21 746.37
  L 339.02 752.17
  L 338.60 757.88
  L 336.74 758.28
  L 335.85 758.20
  L 335.33 758.43
  L 335.33 758.43
  L 335.20 758.70
  L 333.84 759.17
  L 332.54 759.20
  L 332.53 759.20
  L 321.43 759.34
  L 320.72 759.29
  L 315.39 756.63
  L 314.67 756.13
  L 312.00 753.24
  L 310.65 751.19
  L 309.56 749.02
  L 308.69 746.63
  L 308.09 744.15
  L 307.70 741.47
  L 307.56 738.55
  L 307.65 735.57
  L 307.98 732.39
  L 308.65 728.98
  L 309.68 726.06
  L 311.28 723.16
  L 314.12 719.30
  L 314.58 718.71
  L 314.43 718.72
  L 314.73 718.49
  L 322.41 715.04
  L 333.21 715.36
  Z"
/>
<path fill="#8b8c89" fill-opacity="0.996" d="
  M 322.41 715.04
  L 314.73 718.49
  L 316.83 716.99
  L 319.09 715.89
  L 319.09 715.89
  L 322.41 715.04
  Z"
/>
<path fill="#8b8c89" fill-opacity="0.996" d="
  M 502.99 715.94
  L 494.02 715.43
  L 498.05 714.96
  L 502.26 715.04
  L 502.72 715.21
  L 502.99 715.94
  Z"
/>
<path fill="#202026" d="
  M 334.25 715.55
  L 333.70 715.80
  L 333.50 715.77
  L 333.13 715.52
  L 333.21 715.36
  L 334.25 715.55
  Z"
/>
<path fill="#000000" d="
  M 502.99 715.94
  L 503.03 750.42
  L 503.21 750.85
  L 503.63 751.03
  L 503.63 751.03
  L 520.24 751.03
  L 520.76 751.25
  L 520.98 751.77
  L 520.98 757.96
  L 520.68 758.70
  L 519.94 759.00
  L 494.77 759.00
  L 494.31 758.81
  L 494.12 758.36
  L 494.02 715.43
  L 502.99 715.94
  Z"
/>
<path fill="#8b8c89" fill-opacity="0.996" d="
  M 484.05 732.92
  L 483.97 726.77
  L 483.71 726.15
  L 483.08 725.90
  L 472.71 725.90
  L 471.84 725.54
  L 471.48 724.66
  L 471.48 719.43
  L 471.33 718.68
  L 470.90 718.04
  L 470.26 717.61
  L 469.50 717.46
  L 466.93 717.46
  L 466.15 717.61
  L 465.48 718.03
  L 465.01 718.67
  L 464.80 719.43
  L 464.24 722.79
  L 463.12 725.65
  L 464.07 719.01
  L 464.33 718.22
  L 464.86 717.57
  L 465.58 717.14
  L 466.40 716.99
  L 470.64 716.99
  L 471.15 717.09
  L 471.58 717.38
  L 471.87 717.81
  L 471.97 718.32
  L 471.97 724.44
  L 472.14 724.85
  L 472.56 725.02
  L 483.09 725.02
  L 483.75 725.14
  L 484.33 725.50
  L 484.74 726.04
  L 484.93 726.69
  L 485.06 729.47
  L 484.94 732.59
  L 484.85 732.87
  L 484.57 733.08
  L 484.32 733.10
  L 484.05 732.92
  Z"
/>
<path fill="#000000" d="
  M 484.05 732.92
  L 472.05 733.22
  L 471.85 733.28
  L 471.85 733.28
  L 471.55 733.64
  L 471.40 734.30
  L 471.21 738.16
  L 471.24 741.97
  L 471.50 745.72
  L 471.99 749.41
  L 473.13 750.82
  L 474.49 751.70
  L 474.49 751.70
  L 476.00 752.05
  L 479.11 752.00
  L 482.53 751.48
  L 483.60 751.88
  L 483.60 751.88
  L 483.60 751.88
  L 484.26 752.83
  L 484.49 754.33
  L 484.29 756.38
  L 483.67 758.98
  L 479.91 759.37
  L 471.57 759.37
  L 470.39 759.30
  L 469.64 758.87
  L 469.62 758.84
  L 468.13 758.12
  L 466.84 757.26
  L 465.76 756.27
  L 464.88 755.15
  L 464.88 755.15
  L 464.88 755.15
  L 464.88 755.15
  L 464.20 753.89
  L 463.73 752.51
  L 463.20 749.80
  L 462.91 746.76
  L 462.97 738.51
  L 463.07 735.58
  L 462.91 733.93
  L 462.71 733.37
  L 462.47 733.16
  L 461.94 733.64
  L 461.71 733.33
  L 460.75 732.95
  L 458.19 732.89
  L 456.05 733.08
  L 455.42 732.93
  L 454.96 732.31
  L 455.14 731.54
  L 456.04 726.97
  L 457.48 726.87
  L 458.78 726.56
  L 459.74 726.63
  L 460.56 726.08
  L 461.18 726.15
  L 462.15 726.04
  L 463.12 725.65
  L 464.24 722.79
  L 464.80 719.43
  L 465.01 718.67
  L 465.48 718.03
  L 466.15 717.61
  L 466.93 717.46
  L 469.50 717.46
  L 470.26 717.61
  L 470.90 718.04
  L 471.33 718.68
  L 471.48 719.43
  L 471.48 724.66
  L 471.84 725.54
  L 472.71 725.90
  L 472.71 725.90
  L 472.71 725.90
  L 483.08 725.90
  L 483.71 726.15
  L 483.97 726.77
  L 484.05 732.92
  Z"
/>
<path fill="#8b8c89" fill-opacity="0.996" d="
  M 338.71 718.45
  L 338.36 720.48
  L 337.27 722.56
  L 337.28 721.69
  L 337.72 720.04
  L 338.71 718.45
  Z"
/>
<path fill="#8b8c89" fill-opacity="0.996" d="
  M 314.58 718.71
  L 314.12 719.30
  L 311.28 723.16
  L 309.68 726.06
  L 308.65 728.98
  L 307.98 732.39
  L 307.65 735.57
  L 307.56 738.55
  L 307.70 741.47
  L 308.09 744.15
  L 308.69 746.63
  L 309.56 749.02
  L 310.65 751.19
  L 312.00 753.24
  L 314.67 756.13
  L 315.39 756.63
  L 320.72 759.29
  L 318.10 758.55
  L 315.81 757.52
  L 313.82 756.22
  L 312.16 754.65
  L 312.16 754.65
  L 311.68 754.06
  L 310.19 751.83
  L 308.99 749.38
  L 308.01 746.63
  L 307.32 743.74
  L 306.89 740.58
  L 306.76 737.41
  L 306.92 734.18
  L 307.38 731.07
  L 308.05 728.44
  L 308.98 725.92
  L 308.98 725.92
  L 310.44 723.04
  L 312.29 720.33
  L 312.72 719.85
  L 313.56 719.19
  L 314.58 718.71
  Z"
/>
<path fill="#8b8c89" fill-opacity="0.996" d="
  M 549.77 719.03
  L 549.43 720.18
  L 548.82 721.02
  L 548.82 721.02
  L 548.82 721.02
  L 548.01 721.52
  L 546.98 721.77
  L 549.77 719.03
  Z"
/>
<path fill="#8b8c89" fill-opacity="0.996" d="
  M 333.70 723.57
  L 325.43 722.90
  L 327.17 722.40
  L 329.13 722.35
  L 331.31 722.74
  L 333.70 723.57
  Z"
/>
<path fill="#000000" d="
  M 400.36 724.99
  L 405.27 726.60
  L 406.82 727.57
  L 408.58 729.60
  L 410.45 732.77
  L 411.69 736.39
  L 412.32 740.48
  L 412.33 745.02
  L 402.38 744.93
  L 392.50 745.06
  L 391.62 745.20
  L 391.01 745.46
  L 390.69 745.30
  L 390.52 745.35
  L 390.43 745.51
  L 390.80 747.61
  L 391.74 749.21
  L 391.74 749.21
  L 391.74 749.21
  L 392.85 750.11
  L 394.31 750.71
  L 396.60 751.59
  L 399.19 751.99
  L 400.21 752.52
  L 401.14 752.59
  L 401.14 752.59
  L 402.26 751.97
  L 411.22 750.26
  L 410.49 757.95
  L 409.48 758.22
  L 408.79 758.20
  L 408.36 758.41
  L 408.36 758.41
  L 408.20 758.73
  L 406.73 759.23
  L 405.37 759.29
  L 394.98 759.32
  L 394.06 759.23
  L 393.30 758.77
  L 392.93 758.47
  L 392.05 758.10
  L 390.97 758.04
  L 388.52 756.80
  L 386.49 755.15
  L 386.49 755.15
  L 385.50 754.00
  L 384.18 751.63
  L 383.17 749.22
  L 382.46 746.79
  L 382.06 744.32
  L 382.06 744.32
  L 382.06 744.32
  L 381.96 742.12
  L 382.10 739.89
  L 382.47 737.64
  L 383.09 735.37
  L 383.71 733.74
  L 383.71 733.74
  L 384.69 731.90
  L 385.91 730.16
  L 387.38 728.54
  L 389.10 727.03
  L 389.20 727.05
  L 389.90 726.82
  L 390.14 726.58
  L 390.14 726.58
  L 390.03 726.41
  L 393.85 725.25
  L 397.67 724.84
  L 397.67 724.84
  L 400.36 724.99
  Z
  M 395.05 732.55
  L 393.43 733.06
  L 392.25 733.95
  L 392.25 733.95
  L 391.58 735.00
  L 391.21 736.32
  L 390.81 737.66
  L 391.01 738.53
  L 391.01 738.53
  L 391.80 738.93
  L 396.58 739.15
  L 404.33 738.81
  L 404.36 736.54
  L 404.12 735.57
  L 403.70 734.72
  L 403.10 733.98
  L 402.34 733.36
  L 400.29 732.44
  L 398.85 732.03
  L 397.54 731.88
  L 396.38 731.99
  L 395.36 732.37
  L 395.05 732.55
  Z"
/>
<path fill="#000000" d="
  M 437.72 725.10
  L 439.20 725.68
  L 439.20 725.68
  L 440.34 725.81
  L 441.54 725.69
  L 441.62 725.68
  L 442.74 725.89
  L 443.74 726.62
  L 443.74 726.62
  L 444.56 726.85
  L 445.48 726.85
  L 446.29 726.96
  L 446.61 727.92
  L 446.52 728.70
  L 446.52 728.70
  L 446.51 728.72
  L 445.45 731.37
  L 444.76 733.85
  L 438.23 732.99
  L 436.23 732.14
  L 434.26 731.90
  L 432.53 732.18
  L 430.82 732.94
  L 430.16 733.34
  L 429.82 733.85
  L 429.82 733.85
  L 429.82 733.85
  L 429.79 734.46
  L 430.08 735.17
  L 430.96 736.22
  L 432.37 737.17
  L 434.23 737.98
  L 436.86 738.81
  L 437.95 739.13
  L 438.43 739.70
  L 438.90 739.88
  L 438.90 739.88
  L 439.24 739.75
  L 439.99 740.06
  L 440.20 740.23
  L 440.28 740.41
  L 440.28 740.41
  L 440.62 740.61
  L 441.20 740.63
  L 443.95 742.30
  L 445.07 743.32
  L 446.01 744.46
  L 446.16 744.68
  L 446.51 746.47
  L 447.00 749.51
  L 446.86 751.75
  L 446.35 753.25
  L 445.41 754.84
  L 443.83 757.18
  L 440.53 758.68
  L 437.30 759.35
  L 426.37 759.28
  L 425.05 759.25
  L 423.55 758.79
  L 422.95 758.25
  L 421.87 758.13
  L 421.79 758.14
  L 421.02 757.89
  L 420.68 757.15
  L 420.61 750.11
  L 420.77 749.69
  L 421.03 749.62
  L 423.21 750.31
  L 423.72 750.75
  L 424.29 750.57
  L 425.42 750.95
  L 426.16 751.48
  L 426.94 751.70
  L 426.94 751.70
  L 428.07 751.52
  L 431.56 752.08
  L 434.98 752.01
  L 436.80 751.71
  L 437.00 751.65
  L 437.55 751.30
  L 437.90 750.76
  L 438.00 750.12
  L 437.82 749.50
  L 437.26 748.72
  L 436.50 748.02
  L 434.42 746.86
  L 427.23 743.69
  L 424.73 742.38
  L 423.43 741.16
  L 422.39 739.87
  L 421.61 738.51
  L 421.09 737.08
  L 421.09 737.08
  L 420.81 735.21
  L 420.94 733.22
  L 421.47 731.13
  L 422.41 728.93
  L 422.42 728.92
  L 424.51 727.19
  L 427.04 725.87
  L 428.96 725.86
  L 430.64 725.35
  L 431.22 725.02
  L 437.72 725.10
  Z"
/>
<path fill="#000000" d="
  M 623.47 725.27
  L 624.59 725.74
  L 625.21 725.64
  L 626.68 726.19
  L 627.95 726.92
  L 631.61 733.13
  L 632.08 737.25
  L 631.83 747.57
  L 631.96 757.98
  L 631.70 758.65
  L 631.04 758.94
  L 631.03 758.94
  L 623.69 758.94
  L 623.23 758.75
  L 622.92 758.25
  L 622.92 758.25
  L 622.91 757.72
  L 623.18 757.11
  L 623.51 749.45
  L 623.54 739.75
  L 623.17 736.78
  L 622.74 735.62
  L 622.14 734.66
  L 621.02 733.69
  L 619.79 733.02
  L 618.75 732.35
  L 617.69 732.09
  L 617.69 732.09
  L 616.50 732.28
  L 615.29 732.97
  L 614.84 733.29
  L 613.79 733.39
  L 612.69 734.59
  L 612.69 734.59
  L 611.89 735.79
  L 611.26 737.12
  L 610.49 740.16
  L 610.31 747.84
  L 610.39 753.34
  L 610.74 759.01
  L 601.57 759.03
  L 602.13 726.76
  L 602.38 726.19
  L 602.96 725.95
  L 607.61 725.95
  L 608.24 726.15
  L 608.63 726.69
  L 609.48 729.30
  L 609.89 729.77
  L 610.50 729.79
  L 610.55 729.77
  L 611.60 729.10
  L 612.47 728.14
  L 613.12 726.91
  L 615.76 725.65
  L 616.36 725.80
  L 617.03 725.67
  L 617.71 725.25
  L 619.78 724.82
  L 619.78 724.82
  L 621.61 724.86
  L 623.47 725.27
  Z"
/>
<path fill="#000000" d="
  M 656.71 726.93
  L 657.71 728.37
  L 658.94 729.32
  L 659.06 729.37
  L 659.94 729.31
  L 660.47 728.61
  L 660.61 728.10
  L 661.38 726.50
  L 661.85 726.07
  L 662.46 725.92
  L 667.26 725.92
  L 667.86 726.17
  L 668.11 726.77
  L 668.11 726.77
  L 668.22 758.94
  L 667.95 762.21
  L 667.07 765.24
  L 667.07 765.24
  L 665.44 768.28
  L 663.10 771.02
  L 659.62 772.68
  L 656.02 773.75
  L 656.02 773.75
  L 656.02 773.75
  L 656.02 773.75
  L 653.75 774.10
  L 651.44 774.23
  L 649.07 774.14
  L 646.66 773.82
  L 645.80 773.29
  L 644.84 773.17
  L 643.73 773.44
  L 639.85 772.30
  L 639.88 763.93
  L 644.18 765.07
  L 648.07 765.87
  L 651.00 766.10
  L 652.88 765.96
  L 654.75 765.60
  L 656.10 765.46
  L 657.21 764.96
  L 657.21 764.96
  L 658.30 763.76
  L 658.96 761.94
  L 659.49 758.88
  L 659.81 755.84
  L 659.63 755.44
  L 659.19 755.36
  L 659.03 755.46
  L 658.70 755.95
  L 656.33 758.04
  L 652.81 759.03
  L 649.32 759.25
  L 649.32 759.25
  L 646.24 758.79
  L 643.18 757.71
  L 640.83 755.53
  L 639.45 752.46
  L 638.43 749.38
  L 637.79 746.28
  L 637.52 743.18
  L 637.52 743.18
  L 637.52 743.18
  L 637.52 743.18
  L 637.56 740.78
  L 637.83 738.37
  L 638.31 735.95
  L 639.02 733.53
  L 639.73 731.83
  L 640.73 730.14
  L 642.01 728.45
  L 643.57 726.77
  L 643.46 726.75
  L 643.96 726.53
  L 644.68 726.33
  L 645.03 725.98
  L 645.03 725.98
  L 645.06 725.85
  L 645.49 725.79
  L 646.34 725.80
  L 647.01 725.24
  L 649.76 724.90
  L 652.39 725.14
  L 652.39 725.14
  L 652.39 725.14
  L 654.60 725.82
  L 656.71 726.93
  Z
  M 648.42 750.05
  L 650.05 751.38
  L 651.82 752.09
  L 651.82 752.09
  L 653.93 752.13
  L 656.20 751.40
  L 656.73 751.44
  L 656.98 751.04
  L 657.70 750.54
  L 657.80 750.51
  L 658.68 749.72
  L 659.52 748.27
  L 659.89 746.43
  L 659.99 744.48
  L 659.88 738.01
  L 659.46 736.19
  L 658.60 734.80
  L 657.29 733.59
  L 656.01 733.29
  L 655.53 732.87
  L 654.08 732.42
  L 652.74 732.23
  L 651.50 732.29
  L 650.38 732.61
  L 650.38 732.61
  L 649.30 733.23
  L 648.34 734.14
  L 647.58 735.24
  L 647.00 736.56
  L 646.58 738.10
  L 646.34 739.85
  L 646.21 743.37
  L 646.51 746.29
  L 647.24 748.52
  L 648.42 750.05
  Z"
/>
<path fill="#8b8c89" fill-opacity="0.996" d="
  M 356.51 751.26
  L 356.00 751.10
  L 355.28 750.52
  L 354.72 749.48
  L 354.37 748.07
  L 354.21 746.25
  L 353.94 733.93
  L 354.03 726.77
  L 353.77 726.10
  L 353.11 725.81
  L 353.09 725.81
  L 345.07 725.92
  L 346.89 725.31
  L 348.73 724.95
  L 348.73 724.95
  L 348.73 724.95
  L 351.24 724.88
  L 353.81 725.27
  L 354.67 725.82
  L 355.00 726.79
  L 354.99 747.75
  L 355.13 748.86
  L 355.63 750.11
  L 356.51 751.26
  Z"
/>
<path fill="#8b8c89" fill-opacity="0.996" d="
  M 375.52 758.74
  L 375.51 726.74
  L 375.25 726.12
  L 374.62 725.86
  L 367.70 725.86
  L 367.04 726.13
  L 366.76 726.78
  L 366.77 744.49
  L 366.63 746.25
  L 366.19 747.90
  L 366.19 747.90
  L 365.57 749.23
  L 364.73 750.47
  L 365.60 744.88
  L 366.10 739.09
  L 366.24 733.11
  L 366.01 726.92
  L 366.10 726.27
  L 366.43 725.70
  L 366.96 725.30
  L 367.60 725.15
  L 367.60 725.15
  L 367.66 725.15
  L 374.98 725.15
  L 375.39 725.24
  L 375.79 725.60
  L 375.94 726.11
  L 375.94 758.21
  L 375.90 758.37
  L 375.52 758.74
  Z"
/>
<path fill="#8b8c89" fill-opacity="0.996" d="
  M 405.27 726.60
  L 400.36 724.99
  L 401.35 725.08
  L 403.34 725.61
  L 405.27 726.60
  Z"
/>
<path fill="#8b8c89" fill-opacity="0.996" d="
  M 431.22 725.02
  L 430.64 725.35
  L 428.96 725.86
  L 427.04 725.87
  L 428.42 725.36
  L 429.82 725.08
  L 429.82 725.08
  L 431.22 725.02
  Z"
/>
<path fill="#8b8c89" fill-opacity="0.996" d="
  M 441.54 725.69
  L 440.34 725.81
  L 439.20 725.68
  L 439.20 725.68
  L 437.72 725.10
  L 439.46 725.13
  L 441.54 725.69
  Z"
/>
<path fill="#8b8c89" fill-opacity="0.996" d="
  M 549.14 725.51
  L 531.81 725.83
  L 531.05 726.18
  L 530.79 726.98
  L 530.80 727.05
  L 530.92 728.11
  L 530.92 728.11
  L 530.86 730.03
  L 530.45 731.96
  L 530.33 731.58
  L 529.97 729.16
  L 530.19 726.57
  L 530.76 725.57
  L 531.82 725.12
  L 539.28 724.87
  L 546.68 725.24
  L 546.68 725.24
  L 549.14 725.51
  Z"
/>
<path fill="#000000" d="
  M 582.55 725.19
  L 585.71 725.78
  L 588.36 726.73
  L 590.51 728.06
  L 592.15 729.76
  L 592.15 729.76
  L 592.15 729.76
  L 592.98 731.13
  L 593.58 732.67
  L 593.94 734.38
  L 594.07 736.26
  L 594.25 749.85
  L 594.56 759.10
  L 587.73 758.98
  L 587.57 757.75
  L 587.13 757.00
  L 586.73 755.97
  L 586.88 755.51
  L 586.78 755.30
  L 586.63 755.17
  L 586.15 755.11
  L 585.53 755.31
  L 584.67 755.97
  L 584.01 757.03
  L 582.25 758.24
  L 579.23 758.91
  L 576.20 759.22
  L 573.85 759.22
  L 571.49 759.01
  L 570.55 758.72
  L 568.72 757.54
  L 567.26 756.06
  L 567.26 756.06
  L 566.07 753.99
  L 565.38 751.53
  L 564.82 747.53
  L 564.95 746.84
  L 565.75 745.40
  L 566.70 742.71
  L 567.58 741.67
  L 568.77 740.82
  L 569.26 740.87
  L 569.26 740.87
  L 569.79 740.61
  L 570.27 739.99
  L 571.64 739.79
  L 573.04 738.99
  L 574.44 738.63
  L 577.20 738.85
  L 579.89 738.85
  L 582.52 738.62
  L 585.08 738.16
  L 585.67 737.80
  L 586.03 737.32
  L 586.03 737.32
  L 586.03 737.32
  L 586.13 736.30
  L 585.62 734.98
  L 585.63 734.75
  L 585.63 734.75
  L 585.24 733.88
  L 584.22 733.05
  L 582.30 732.25
  L 581.49 732.19
  L 580.78 732.36
  L 580.67 732.41
  L 579.84 732.25
  L 579.84 732.25
  L 578.55 732.20
  L 577.24 732.40
  L 576.57 732.21
  L 575.94 732.23
  L 575.94 732.23
  L 575.33 732.48
  L 574.78 732.96
  L 570.41 733.82
  L 569.50 733.64
  L 569.04 733.24
  L 568.83 732.78
  L 568.83 732.36
  L 568.09 730.68
  L 567.71 729.27
  L 567.70 728.13
  L 568.05 727.25
  L 568.05 727.25
  L 568.24 727.03
  L 570.19 726.39
  L 575.74 725.27
  L 579.30 724.86
  L 582.55 725.19
  Z
  M 580.61 743.83
  L 576.74 744.51
  L 575.23 745.05
  L 574.14 745.94
  L 573.41 747.41
  L 573.25 749.34
  L 573.61 750.61
  L 574.49 751.54
  L 576.71 752.65
  L 577.81 752.90
  L 578.88 752.93
  L 578.88 752.93
  L 580.45 752.60
  L 581.99 751.80
  L 583.27 751.17
  L 584.46 750.22
  L 585.43 749.46
  L 585.81 748.56
  L 585.84 747.41
  L 585.92 744.06
  L 585.28 743.60
  L 584.34 743.26
  L 583.24 743.18
  L 582.00 743.37
  L 580.61 743.83
  Z"
/>
<path fill="#8b8c89" fill-opacity="0.996" d="
  M 594.56 759.10
  L 594.25 749.85
  L 594.07 736.26
  L 593.94 734.38
  L 593.58 732.67
  L 592.98 731.13
  L 592.15 729.76
  L 592.15 729.76
  L 592.15 729.76
  L 590.51 728.06
  L 588.36 726.73
  L 585.71 725.78
  L 582.55 725.19
  L 584.21 725.21
  L 585.82 725.43
  L 585.82 725.43
  L 587.53 725.90
  L 589.19 726.61
  L 590.71 727.56
  L 591.98 728.74
  L 592.93 730.04
  L 593.66 731.52
  L 594.69 735.31
  L 595.09 739.76
  L 595.04 749.42
  L 594.56 759.10
  Z"
/>
<path fill="#8b8c89" fill-opacity="0.996" d="
  M 613.12 726.91
  L 612.47 728.14
  L 611.60 729.10
  L 611.60 729.10
  L 610.55 729.77
  L 610.50 729.79
  L 609.89 729.77
  L 609.48 729.30
  L 608.63 726.69
  L 608.24 726.15
  L 607.61 725.95
  L 602.96 725.95
  L 602.38 726.19
  L 602.13 726.76
  L 601.57 759.03
  L 600.99 726.89
  L 601.24 726.03
  L 601.93 725.47
  L 603.97 724.95
  L 606.15 724.98
  L 608.01 725.58
  L 609.34 726.68
  L 610.14 728.23
  L 610.18 728.32
  L 610.48 728.51
  L 610.81 728.39
  L 612.48 727.17
  L 613.12 726.91
  Z"
/>
<path fill="#8b8c89" fill-opacity="0.996" d="
  M 663.10 771.02
  L 665.44 768.28
  L 667.07 765.24
  L 667.07 765.24
  L 667.95 762.21
  L 668.22 758.94
  L 668.11 726.77
  L 668.11 726.77
  L 667.86 726.17
  L 667.26 725.92
  L 662.46 725.92
  L 661.85 726.07
  L 661.38 726.50
  L 660.61 728.10
  L 660.47 728.61
  L 659.94 729.31
  L 659.06 729.37
  L 658.94 729.32
  L 657.71 728.37
  L 656.71 726.93
  L 657.79 727.36
  L 658.66 728.01
  L 659.22 728.71
  L 659.28 728.77
  L 659.50 728.81
  L 659.66 728.65
  L 660.13 727.53
  L 660.79 726.63
  L 662.06 725.63
  L 663.76 725.01
  L 665.69 724.85
  L 667.61 725.15
  L 667.96 725.29
  L 668.41 725.70
  L 668.74 726.33
  L 669.00 728.26
  L 668.93 757.98
  L 668.70 760.84
  L 668.13 763.47
  L 667.21 765.85
  L 665.96 767.99
  L 665.96 767.99
  L 665.96 767.99
  L 665.96 767.99
  L 664.65 769.59
  L 663.10 771.02
  Z"
/>
<path fill="#8b8c89" fill-opacity="0.996" d="
  M 575.74 725.27
  L 570.19 726.39
  L 573.07 725.49
  L 575.74 725.27
  Z"
/>
<path fill="#202026" d="
  M 617.71 725.25
  L 617.03 725.67
  L 616.36 725.80
  L 615.76 725.65
  L 616.32 725.43
  L 617.71 725.25
  Z"
/>
<path fill="#202026" d="
  M 625.21 725.64
  L 624.59 725.74
  L 623.47 725.27
  L 624.27 725.25
  L 625.21 725.64
  Z"
/>
<path fill="#202026" d="
  M 647.01 725.24
  L 646.34 725.80
  L 645.49 725.79
  L 647.01 725.24
  Z"
/>
<path fill="#8b8c89" fill-opacity="0.996" d="
  M 319.80 725.61
  L 318.27 728.31
  L 317.34 731.14
  L 317.06 733.25
  L 316.93 739.46
  L 317.06 742.78
  L 317.45 744.53
  L 319.17 748.86
  L 317.53 745.96
  L 316.51 742.52
  L 316.09 738.53
  L 316.28 734.00
  L 316.73 731.26
  L 317.47 728.94
  L 318.49 727.06
  L 319.80 725.61
  Z"
/>
<path fill="#000000" d="
  M 356.51 751.26
  L 357.64 751.78
  L 358.80 752.07
  L 358.80 752.07
  L 358.80 752.07
  L 360.21 752.13
  L 361.67 751.89
  L 363.18 751.33
  L 364.73 750.47
  L 365.57 749.23
  L 366.19 747.90
  L 366.19 747.90
  L 366.19 747.90
  L 366.63 746.25
  L 366.77 744.49
  L 366.76 726.78
  L 367.04 726.13
  L 367.70 725.86
  L 374.62 725.86
  L 375.25 726.12
  L 375.51 726.74
  L 375.52 758.74
  L 375.47 758.87
  L 375.00 759.03
  L 368.94 758.81
  L 368.11 757.02
  L 367.70 756.00
  L 367.78 755.44
  L 367.74 755.38
  L 367.02 755.08
  L 366.24 755.41
  L 364.09 757.24
  L 361.90 758.62
  L 360.89 758.99
  L 358.60 759.31
  L 356.32 759.39
  L 356.32 759.39
  L 356.32 759.39
  L 353.54 759.13
  L 350.77 758.50
  L 350.00 758.06
  L 347.79 755.49
  L 346.98 754.10
  L 346.36 752.65
  L 346.36 752.65
  L 346.36 752.65
  L 345.85 750.62
  L 345.68 748.48
  L 345.33 728.51
  L 345.34 727.40
  L 345.07 725.92
  L 353.09 725.81
  L 353.11 725.81
  L 353.77 726.10
  L 354.03 726.77
  L 353.94 733.93
  L 354.21 746.25
  L 354.37 748.07
  L 354.72 749.48
  L 355.28 750.52
  L 356.00 751.10
  L 356.51 751.26
  Z"
/>
<path fill="#8b8c89" fill-opacity="0.996" d="
  M 445.48 726.85
  L 444.56 726.85
  L 443.74 726.62
  L 443.74 726.62
  L 442.74 725.89
  L 443.95 726.07
  L 445.00 726.52
  L 445.00 726.52
  L 445.48 726.85
  Z"
/>
<path fill="#000000" d="
  M 549.14 725.51
  L 549.15 751.04
  L 549.27 751.47
  L 549.61 751.78
  L 550.89 752.14
  L 552.48 752.08
  L 553.52 752.80
  L 554.36 752.89
  L 555.31 752.64
  L 558.25 752.95
  L 558.52 754.38
  L 559.00 755.58
  L 559.03 758.20
  L 558.80 758.77
  L 558.23 759.01
  L 558.23 759.01
  L 529.99 759.01
  L 529.30 758.73
  L 529.01 758.04
  L 529.01 754.14
  L 529.31 753.36
  L 530.05 752.98
  L 533.80 752.58
  L 534.68 752.75
  L 534.68 752.75
  L 535.32 752.62
  L 535.96 752.27
  L 539.52 751.85
  L 539.73 751.79
  L 540.05 751.42
  L 540.21 750.75
  L 540.20 734.51
  L 539.82 733.64
  L 539.82 733.64
  L 539.34 733.22
  L 538.68 732.94
  L 536.80 732.83
  L 534.89 732.22
  L 533.04 732.36
  L 531.68 732.30
  L 530.45 731.96
  L 530.86 730.03
  L 530.92 728.11
  L 530.80 727.05
  L 530.79 726.98
  L 531.05 726.18
  L 531.81 725.83
  L 549.14 725.51
  Z"
/>
<path fill="#202026" d="
  M 645.06 725.85
  L 645.03 725.98
  L 645.03 725.98
  L 644.68 726.33
  L 643.96 726.53
  L 644.16 726.27
  L 645.06 725.85
  Z"
/>
<path fill="#8b8c89" fill-opacity="0.996" d="
  M 460.56 726.08
  L 459.74 726.63
  L 458.78 726.56
  L 459.19 726.38
  L 460.56 726.08
  Z"
/>
<path fill="#202026" d="
  M 390.03 726.41
  L 390.14 726.58
  L 389.90 726.82
  L 389.20 727.05
  L 389.36 726.84
  L 390.03 726.41
  Z"
/>
<path fill="#8b8c89" fill-opacity="0.996" d="
  M 643.57 726.77
  L 642.01 728.45
  L 640.73 730.14
  L 639.73 731.83
  L 639.02 733.53
  L 638.31 735.95
  L 637.83 738.37
  L 637.56 740.78
  L 637.52 743.18
  L 637.52 743.18
  L 637.52 743.18
  L 637.79 746.28
  L 638.43 749.38
  L 639.45 752.46
  L 640.83 755.53
  L 639.26 752.84
  L 638.08 750.02
  L 638.08 750.02
  L 637.21 746.56
  L 636.88 742.91
  L 637.09 739.08
  L 637.84 735.06
  L 638.84 732.01
  L 640.20 729.48
  L 641.77 727.76
  L 643.57 726.77
  Z"
/>
<path fill="#8b8c89" fill-opacity="0.996" d="
  M 389.10 727.03
  L 387.38 728.54
  L 385.91 730.16
  L 384.69 731.90
  L 383.71 733.74
  L 383.71 733.74
  L 383.09 735.37
  L 382.47 737.64
  L 382.10 739.89
  L 381.96 742.12
  L 382.06 744.32
  L 382.06 744.32
  L 382.06 744.32
  L 382.46 746.79
  L 383.17 749.22
  L 384.18 751.63
  L 385.50 754.00
  L 384.07 752.25
  L 382.98 750.35
  L 382.98 750.35
  L 382.98 750.35
  L 382.32 748.61
  L 381.90 746.77
  L 381.60 744.05
  L 381.57 741.34
  L 381.57 741.34
  L 381.77 738.85
  L 382.20 736.36
  L 383.25 733.18
  L 384.90 730.48
  L 384.90 730.48
  L 386.78 728.58
  L 389.10 727.03
  Z"
/>
<path fill="#8b8c89" fill-opacity="0.996" d="
  M 444.76 733.85
  L 445.45 731.37
  L 446.51 728.72
  L 446.52 728.70
  L 446.52 728.70
  L 446.61 727.92
  L 446.29 726.96
  L 446.53 727.26
  L 446.82 727.98
  L 446.85 728.88
  L 446.26 731.39
  L 445.10 733.45
  L 444.76 733.85
  Z"
/>
<path fill="#8b8c89" fill-opacity="0.996" d="
  M 456.04 726.97
  L 455.14 731.54
  L 454.90 729.95
  L 454.91 728.69
  L 455.15 727.76
  L 455.62 727.17
  L 456.04 726.97
  Z"
/>
<path fill="#8b8c89" fill-opacity="0.996" d="
  M 568.24 727.03
  L 568.05 727.25
  L 568.05 727.25
  L 567.70 728.13
  L 567.71 729.27
  L 568.09 730.68
  L 568.83 732.36
  L 567.80 730.72
  L 567.18 729.37
  L 566.98 728.33
  L 567.20 727.58
  L 567.20 727.58
  L 567.61 727.23
  L 568.24 727.03
  Z"
/>
<path fill="#8b8c89" fill-opacity="0.996" d="
  M 631.61 733.13
  L 627.95 726.92
  L 629.24 727.95
  L 630.25 729.15
  L 631.16 730.99
  L 631.61 733.13
  Z"
/>
<path fill="#8b8c89" fill-opacity="0.996" d="
  M 406.82 727.57
  L 408.64 728.88
  L 410.12 730.45
  L 410.12 730.45
  L 411.46 732.80
  L 412.21 734.88
  L 412.72 736.95
  L 412.98 739.01
  L 413.00 741.06
  L 413.00 741.06
  L 412.78 743.04
  L 412.33 745.02
  L 412.32 740.48
  L 411.69 736.39
  L 410.45 732.77
  L 408.58 729.60
  L 406.82 727.57
  Z"
/>
<path fill="#8b8c89" fill-opacity="0.996" d="
  M 350.00 758.06
  L 348.04 756.41
  L 346.57 754.48
  L 346.57 754.48
  L 346.57 754.48
  L 345.79 752.85
  L 345.29 751.06
  L 345.04 742.43
  L 345.08 735.47
  L 345.33 728.51
  L 345.68 748.48
  L 345.85 750.62
  L 346.36 752.65
  L 346.36 752.65
  L 346.36 752.65
  L 346.36 752.65
  L 346.98 754.10
  L 347.79 755.49
  L 350.00 758.06
  Z"
/>
<path fill="#8b8c89" fill-opacity="0.996" d="
  M 422.41 728.93
  L 421.47 731.13
  L 420.94 733.22
  L 420.81 735.21
  L 421.09 737.08
  L 421.09 737.08
  L 421.09 737.08
  L 421.09 737.08
  L 421.61 738.51
  L 422.39 739.87
  L 423.43 741.16
  L 424.73 742.38
  L 422.99 741.03
  L 421.65 739.60
  L 420.72 738.09
  L 420.19 736.50
  L 420.19 736.50
  L 420.19 736.50
  L 420.19 736.50
  L 420.07 734.74
  L 420.41 732.89
  L 421.18 730.96
  L 422.41 728.93
  Z"
/>
<path fill="#8b8c89" fill-opacity="0.996" d="
  M 438.23 732.99
  L 430.82 732.94
  L 432.53 732.18
  L 434.26 731.90
  L 434.26 731.90
  L 436.23 732.14
  L 438.23 732.99
  Z"
/>
<path fill="#8b8c89" fill-opacity="0.996" d="
  M 585.62 734.98
  L 584.72 734.18
  L 584.72 734.18
  L 582.85 733.09
  L 580.67 732.41
  L 580.78 732.36
  L 581.49 732.19
  L 582.30 732.25
  L 584.22 733.05
  L 585.24 733.88
  L 585.63 734.75
  L 585.63 734.75
  L 585.62 734.98
  Z"
/>
<path fill="#8b8c89" fill-opacity="0.996" d="
  M 404.33 738.81
  L 403.78 736.76
  L 403.01 735.06
  L 402.02 733.72
  L 400.81 732.73
  L 400.81 732.73
  L 400.81 732.73
  L 400.29 732.44
  L 402.34 733.36
  L 403.10 733.98
  L 403.70 734.72
  L 403.70 734.72
  L 403.70 734.72
  L 404.12 735.57
  L 404.36 736.54
  L 404.33 738.81
  Z"
/>
<path fill="#8b8c89" fill-opacity="0.996" d="
  M 536.80 732.83
  L 535.64 732.96
  L 534.52 732.86
  L 534.52 732.86
  L 533.04 732.36
  L 534.89 732.22
  L 536.80 732.83
  Z"
/>
<path fill="#8b8c89" fill-opacity="0.996" d="
  M 577.24 732.40
  L 574.78 732.96
  L 575.33 732.48
  L 575.94 732.23
  L 576.57 732.21
  L 577.24 732.40
  Z"
/>
<path fill="#8b8c89" fill-opacity="0.996" d="
  M 619.79 733.02
  L 615.29 732.97
  L 616.50 732.28
  L 617.69 732.09
  L 617.69 732.09
  L 618.75 732.35
  L 619.79 733.02
  Z"
/>
<path fill="#8b8c89" fill-opacity="0.996" d="
  M 655.53 732.87
  L 653.70 732.80
  L 652.09 733.00
  L 650.70 733.46
  L 649.53 734.20
  L 649.53 734.20
  L 649.53 734.20
  L 649.53 734.20
  L 649.53 734.20
  L 648.43 735.40
  L 647.64 736.98
  L 647.15 738.93
  L 646.97 741.25
  L 647.03 743.91
  L 647.30 746.27
  L 647.76 748.31
  L 648.42 750.05
  L 647.24 748.52
  L 646.51 746.29
  L 646.21 743.37
  L 646.34 739.85
  L 646.58 738.10
  L 647.00 736.56
  L 647.58 735.24
  L 648.34 734.14
  L 649.30 733.23
  L 650.38 732.61
  L 650.38 732.61
  L 650.38 732.61
  L 651.50 732.29
  L 652.74 732.23
  L 654.08 732.42
  L 655.53 732.87
  Z"
/>
<path fill="#8b8c89" fill-opacity="0.996" d="
  M 395.05 732.55
  L 391.21 736.32
  L 391.58 735.00
  L 392.25 733.95
  L 392.25 733.95
  L 393.43 733.06
  L 395.05 732.55
  Z"
/>
<path fill="#8b8c89" fill-opacity="0.996" d="
  M 469.62 758.84
  L 467.78 758.24
  L 466.48 757.42
  L 465.38 756.36
  L 464.39 754.98
  L 463.60 753.41
  L 462.95 751.55
  L 462.45 749.43
  L 462.13 747.05
  L 462.02 744.63
  L 461.94 733.64
  L 462.47 733.16
  L 462.71 733.37
  L 462.91 733.93
  L 463.07 735.58
  L 462.97 738.51
  L 462.91 746.76
  L 463.20 749.80
  L 463.73 752.51
  L 464.20 753.89
  L 464.88 755.15
  L 464.88 755.15
  L 464.88 755.15
  L 464.88 755.15
  L 465.76 756.27
  L 466.84 757.26
  L 468.13 758.12
  L 469.62 758.84
  Z"
/>
<path fill="#8b8c89" fill-opacity="0.996" d="
  M 472.05 733.22
  L 471.99 749.41
  L 471.50 745.72
  L 471.24 741.97
  L 471.21 738.16
  L 471.40 734.30
  L 471.55 733.64
  L 471.85 733.28
  L 471.85 733.28
  L 472.05 733.22
  Z"
/>
<path fill="#8b8c89" fill-opacity="0.996" d="
  M 613.79 733.39
  L 612.77 735.40
  L 612.77 735.40
  L 612.01 737.47
  L 611.47 739.63
  L 611.16 741.90
  L 611.08 744.26
  L 610.74 759.01
  L 610.39 753.34
  L 610.31 747.84
  L 610.49 740.16
  L 611.26 737.12
  L 611.89 735.79
  L 612.69 734.59
  L 612.69 734.59
  L 612.69 734.59
  L 613.79 733.39
  Z"
/>
<path fill="#8b8c89" fill-opacity="0.996" d="
  M 657.80 750.51
  L 659.27 746.44
  L 659.79 743.49
  L 659.66 741.17
  L 659.20 738.75
  L 658.41 736.22
  L 657.29 733.59
  L 658.60 734.80
  L 659.46 736.19
  L 659.46 736.19
  L 659.88 738.01
  L 659.99 744.48
  L 659.89 746.43
  L 659.52 748.27
  L 658.68 749.72
  L 657.80 750.51
  Z"
/>
<path fill="#8b8c89" fill-opacity="0.996" d="
  M 338.23 734.38
  L 326.76 734.62
  L 325.97 734.96
  L 325.62 735.75
  L 325.42 741.93
  L 325.32 741.46
  L 324.95 738.22
  L 325.13 734.88
  L 325.32 734.52
  L 325.71 734.37
  L 338.23 734.38
  Z"
/>
<path fill="#8b8c89" fill-opacity="0.996" d="
  M 338.60 757.88
  L 339.02 752.17
  L 339.21 746.37
  L 339.18 740.48
  L 338.94 734.50
  L 339.41 734.54
  L 339.82 735.35
  L 339.93 736.07
  L 340.10 755.00
  L 339.89 756.53
  L 339.24 757.53
  L 338.60 757.88
  Z"
/>
<path fill="#202026" d="
  M 540.21 750.75
  L 540.20 734.51
  L 540.21 750.75
  Z"
/>
<path fill="#202026" d="
  M 623.18 757.11
  L 622.96 748.90
  L 622.95 740.75
  L 622.85 738.37
  L 622.14 734.66
  L 622.74 735.62
  L 623.17 736.78
  L 623.54 739.75
  L 623.51 749.45
  L 623.18 757.11
  Z"
/>
<path fill="#8b8c89" fill-opacity="0.996" d="
  M 585.08 738.16
  L 582.52 738.62
  L 579.89 738.85
  L 577.20 738.85
  L 574.44 738.63
  L 576.51 738.27
  L 576.51 738.27
  L 580.76 737.94
  L 585.08 738.16
  Z"
/>
<path fill="#8b8c89" fill-opacity="0.996" d="
  M 573.04 738.99
  L 571.64 739.79
  L 570.27 739.99
  L 571.51 739.27
  L 573.04 738.99
  Z"
/>
<path fill="#202026" d="
  M 439.24 739.75
  L 438.90 739.88
  L 438.90 739.88
  L 438.43 739.70
  L 437.95 739.13
  L 439.24 739.75
  Z"
/>
<path fill="#202026" d="
  M 570.27 739.99
  L 569.79 740.61
  L 569.26 740.87
  L 569.26 740.87
  L 568.77 740.82
  L 569.72 740.15
  L 570.27 739.99
  Z"
/>
<path fill="#202026" d="
  M 441.20 740.63
  L 440.62 740.61
  L 440.28 740.41
  L 440.28 740.41
  L 440.20 740.23
  L 441.20 740.63
  Z"
/>
<path fill="#8b8c89" fill-opacity="0.996" d="
  M 330.41 751.55
  L 330.84 749.37
  L 331.05 747.12
  L 331.03 744.81
  L 330.79 742.44
  L 331.09 742.43
  L 331.16 742.41
  L 331.49 742.50
  L 331.63 742.81
  L 331.54 751.02
  L 331.29 751.59
  L 330.71 751.80
  L 330.67 751.80
  L 330.16 751.68
  L 330.41 751.55
  Z"
/>
<path fill="#8b8c89" fill-opacity="0.996" d="
  M 566.70 742.71
  L 565.75 745.40
  L 564.95 746.84
  L 564.96 745.54
  L 565.30 744.39
  L 565.87 743.49
  L 566.70 742.71
  Z"
/>
<path fill="#8b8c89" fill-opacity="0.996" d="
  M 585.92 744.06
  L 580.61 743.83
  L 582.00 743.37
  L 583.24 743.18
  L 584.34 743.26
  L 585.28 743.60
  L 585.28 743.60
  L 585.28 743.60
  L 585.92 744.06
  Z"
/>
<path fill="#8b8c89" fill-opacity="0.996" d="
  M 576.74 744.51
  L 575.38 745.27
  L 574.47 746.30
  L 574.47 746.30
  L 574.13 747.10
  L 573.96 748.01
  L 574.20 750.16
  L 574.83 751.25
  L 575.94 751.84
  L 578.87 752.14
  L 581.99 751.80
  L 580.45 752.60
  L 578.88 752.93
  L 578.88 752.93
  L 578.88 752.93
  L 577.81 752.90
  L 576.71 752.65
  L 574.49 751.54
  L 573.61 750.61
  L 573.25 749.34
  L 573.41 747.41
  L 574.14 745.94
  L 575.23 745.05
  L 576.74 744.51
  Z"
/>
<path fill="#8b8c89" fill-opacity="0.996" d="
  M 446.16 744.68
  L 447.03 746.18
  L 447.60 747.61
  L 447.89 748.97
  L 447.88 750.26
  L 447.28 752.76
  L 446.16 754.90
  L 445.11 756.12
  L 443.83 757.18
  L 445.41 754.84
  L 446.35 753.25
  L 446.86 751.75
  L 447.00 749.51
  L 446.51 746.47
  L 446.16 744.68
  Z"
/>
<path fill="#202026" d="
  M 391.01 745.46
  L 390.98 745.55
  L 390.96 746.63
  L 391.55 747.93
  L 392.73 749.35
  L 394.31 750.71
  L 392.85 750.11
  L 391.74 749.21
  L 391.74 749.21
  L 391.74 749.21
  L 390.80 747.61
  L 390.43 745.51
  L 390.52 745.35
  L 390.69 745.30
  L 391.01 745.46
  Z"
/>
<path fill="#8b8c89" fill-opacity="0.996" d="
  M 582.25 758.24
  L 579.32 759.47
  L 576.34 760.01
  L 576.34 760.01
  L 573.13 759.85
  L 570.36 759.04
  L 568.09 757.64
  L 568.09 757.64
  L 568.09 757.64
  L 567.12 756.68
  L 566.29 755.57
  L 565.44 753.96
  L 565.44 753.96
  L 564.96 752.49
  L 564.69 750.93
  L 564.65 749.27
  L 564.82 747.53
  L 565.38 751.53
  L 566.07 753.99
  L 567.26 756.06
  L 567.26 756.06
  L 567.26 756.06
  L 568.72 757.54
  L 570.55 758.72
  L 571.49 759.01
  L 573.85 759.22
  L 576.20 759.22
  L 576.20 759.22
  L 579.23 758.91
  L 582.25 758.24
  Z"
/>
<path fill="#8b8c89" fill-opacity="0.996" d="
  M 584.46 750.22
  L 585.84 747.41
  L 585.81 748.56
  L 585.43 749.46
  L 585.43 749.46
  L 584.46 750.22
  Z"
/>
<path fill="#8b8c89" fill-opacity="0.996" d="
  M 421.03 749.62
  L 420.77 749.69
  L 420.61 750.11
  L 420.68 757.15
  L 421.02 757.89
  L 421.79 758.14
  L 421.87 758.13
  L 422.95 758.25
  L 423.55 758.79
  L 422.17 758.66
  L 420.49 757.98
  L 420.16 757.64
  L 420.04 757.18
  L 420.04 749.77
  L 420.05 749.67
  L 420.30 749.36
  L 420.70 749.35
  L 421.03 749.62
  Z"
/>
<path fill="#8b8c89" fill-opacity="0.996" d="
  M 410.49 757.95
  L 411.22 750.26
  L 411.24 750.29
  L 411.24 750.29
  L 411.24 750.29
  L 411.88 751.45
  L 412.20 752.85
  L 412.20 754.49
  L 411.88 756.38
  L 411.31 757.46
  L 410.49 757.95
  Z"
/>
<path fill="#202026" d="
  M 424.29 750.57
  L 423.72 750.75
  L 423.21 750.31
  L 423.74 750.37
  L 424.29 750.57
  Z"
/>
<path fill="#8b8c89" fill-opacity="0.996" d="
  M 428.07 751.52
  L 426.94 751.70
  L 426.94 751.70
  L 426.16 751.48
  L 425.42 750.95
  L 428.07 751.52
  Z"
/>
<path fill="#8b8c89" fill-opacity="0.996" d="
  M 483.67 758.98
  L 484.29 756.38
  L 484.49 754.33
  L 484.26 752.83
  L 483.60 751.88
  L 483.60 751.88
  L 483.60 751.88
  L 482.53 751.48
  L 483.25 751.10
  L 483.96 750.98
  L 483.96 750.98
  L 484.43 751.03
  L 484.83 751.26
  L 485.03 751.67
  L 485.21 753.48
  L 485.14 755.15
  L 484.81 756.69
  L 484.22 758.09
  L 484.22 758.09
  L 483.67 758.98
  Z"
/>
<path fill="#202026" d="
  M 656.98 751.04
  L 656.73 751.44
  L 656.20 751.40
  L 656.98 751.04
  Z"
/>
<path fill="#8b8c89" fill-opacity="0.996" d="
  M 402.26 751.97
  L 401.14 752.59
  L 400.21 752.52
  L 399.19 751.99
  L 402.26 751.97
  Z"
/>
<path fill="#8b8c89" fill-opacity="0.996" d="
  M 555.31 752.64
  L 554.36 752.89
  L 553.52 752.80
  L 552.48 752.08
  L 554.02 752.16
  L 555.31 752.64
  Z"
/>
<path fill="#8b8c89" fill-opacity="0.996" d="
  M 535.96 752.27
  L 535.32 752.62
  L 534.68 752.75
  L 534.68 752.75
  L 533.80 752.58
  L 535.56 752.24
  L 535.96 752.27
  Z"
/>
<path fill="#202026" d="
  M 559.00 755.58
  L 558.52 754.38
  L 558.25 752.95
  L 558.43 753.09
  L 558.96 754.08
  L 559.00 755.58
  Z"
/>
<path fill="#8b8c89" fill-opacity="0.996" d="
  M 367.70 756.00
  L 367.20 756.00
  L 366.94 756.14
  L 365.05 757.45
  L 362.93 758.56
  L 360.76 759.37
  L 358.50 759.88
  L 356.45 760.04
  L 354.44 759.88
  L 352.62 759.40
  L 350.91 758.59
  L 350.77 758.50
  L 353.54 759.13
  L 356.32 759.39
  L 356.32 759.39
  L 356.32 759.39
  L 358.60 759.31
  L 360.89 758.99
  L 361.90 758.62
  L 364.09 757.24
  L 366.24 755.41
  L 367.02 755.08
  L 367.74 755.38
  L 367.74 755.38
  L 367.78 755.44
  L 367.70 756.00
  Z"
/>
<path fill="#8b8c89" fill-opacity="0.996" d="
  M 586.73 755.97
  L 585.41 756.29
  L 584.01 757.03
  L 584.67 755.97
  L 585.53 755.31
  L 586.15 755.11
  L 586.63 755.17
  L 586.78 755.30
  L 586.88 755.51
  L 586.73 755.97
  Z"
/>
<path fill="#8b8c89" fill-opacity="0.996" d="
  M 654.75 765.60
  L 656.75 764.72
  L 658.15 763.42
  L 658.75 762.19
  L 659.05 760.58
  L 659.02 758.67
  L 658.70 755.95
  L 659.03 755.46
  L 659.19 755.36
  L 659.63 755.44
  L 659.81 755.84
  L 659.49 758.88
  L 658.96 761.94
  L 658.30 763.76
  L 657.21 764.96
  L 656.10 765.46
  L 654.75 765.60
  Z"
/>
<path fill="#8b8c89" fill-opacity="0.996" d="
  M 368.94 758.81
  L 368.31 758.83
  L 368.09 758.72
  L 367.92 758.42
  L 367.90 757.77
  L 368.11 757.02
  L 368.94 758.81
  Z"
/>
<path fill="#8b8c89" fill-opacity="0.996" d="
  M 587.73 758.98
  L 587.12 758.86
  L 587.03 758.79
  L 586.87 758.32
  L 587.13 757.00
  L 587.57 757.75
  L 587.73 758.98
  Z"
/>
<path fill="#8b8c89" fill-opacity="0.996" d="
  M 656.33 758.04
  L 654.62 758.96
  L 652.92 759.60
  L 651.22 759.96
  L 649.54 760.04
  L 649.54 760.04
  L 647.94 759.85
  L 646.34 759.40
  L 644.76 758.68
  L 643.18 757.71
  L 646.24 758.79
  L 649.32 759.25
  L 649.32 759.25
  L 652.81 759.03
  L 656.33 758.04
  Z"
/>
<path fill="#202026" d="
  M 393.30 758.77
  L 392.26 758.61
  L 391.33 758.25
  L 391.33 758.25
  L 390.97 758.04
  L 392.05 758.10
  L 392.93 758.47
  L 393.30 758.77
  Z"
/>
<path fill="#202026" d="
  M 336.74 758.28
  L 336.13 758.53
  L 335.20 758.70
  L 335.33 758.43
  L 335.33 758.43
  L 335.85 758.20
  L 336.74 758.28
  Z"
/>
<path fill="#202026" d="
  M 409.48 758.22
  L 409.22 758.42
  L 408.20 758.73
  L 408.36 758.41
  L 408.36 758.41
  L 408.79 758.20
  L 409.48 758.22
  Z"
/>
<path fill="#8b8c89" fill-opacity="0.996" d="
  M 332.53 759.20
  L 329.76 759.84
  L 326.99 760.08
  L 326.99 760.08
  L 324.21 759.91
  L 321.43 759.34
  L 332.53 759.20
  Z"
/>
<path fill="#8b8c89" fill-opacity="0.996" d="
  M 405.37 759.29
  L 402.24 759.92
  L 402.24 759.92
  L 398.65 759.97
  L 394.98 759.32
  L 405.37 759.29
  Z"
/>
<path fill="#8b8c89" fill-opacity="0.996" d="
  M 437.30 759.35
  L 434.14 759.92
  L 431.01 760.02
  L 431.01 760.02
  L 431.01 760.02
  L 428.68 759.78
  L 426.37 759.28
  L 437.30 759.35
  Z"
/>
<path fill="#8b8c89" fill-opacity="0.996" d="
  M 479.91 759.37
  L 477.71 759.86
  L 475.51 760.00
  L 475.51 760.00
  L 475.51 760.00
  L 473.54 759.83
  L 471.57 759.37
  L 479.91 759.37
  Z"
/>
<path fill="#8b8c89" fill-opacity="0.996" d="
  M 639.88 763.93
  L 639.85 772.30
  L 638.96 769.83
  L 638.79 767.43
  L 638.79 767.43
  L 639.14 765.66
  L 639.88 763.93
  Z"
/>
<path fill="#8b8c89" fill-opacity="0.996" d="
  M 646.66 773.82
  L 643.73 773.44
  L 644.84 773.17
  L 645.80 773.29
  L 645.80 773.29
  L 646.66 773.82
  Z"
/>
</svg>
